<?xml version="1.0" encoding="utf-8"?>
<!-- Generator: Adobe Illustrator 26.5.0, SVG Export Plug-In . SVG Version: 6.00 Build 0)  -->
<svg version="1.1" id="Layer_1" xmlns="http://www.w3.org/2000/svg" xmlns:xlink="http://www.w3.org/1999/xlink" x="0px" y="0px"
	 viewBox="0 0 600 371" style="enable-background:new 0 0 600 371;" xml:space="preserve">
<style type="text/css">
	.st0{fill:#FFFFFF;}
	.st1{fill:none;stroke:#333333;stroke-miterlimit:10;}
	.st2{fill:none;stroke:#CCCCCC;stroke-miterlimit:10;}
	
		.st3{clip-path:url(#SVGID_00000065756498443826743810000006420433601011318948_);fill:none;stroke:#000000;stroke-width:2;stroke-miterlimit:10;stroke-opacity:0;}
	.st4{clip-path:url(#SVGID_00000070834155518234998420000002002442561329532846_);fill:#212C46;}
	
		.st5{clip-path:url(#SVGID_00000132809306741035422280000017688168647435953843_);fill:none;stroke:#000000;stroke-width:2;stroke-miterlimit:10;stroke-opacity:0;}
	.st6{clip-path:url(#SVGID_00000052102775867143895530000003513542072191405973_);fill:#212C46;}
	
		.st7{clip-path:url(#SVGID_00000148644326493340778890000000876615867586315691_);fill:none;stroke:#000000;stroke-width:2;stroke-miterlimit:10;stroke-opacity:0;}
	.st8{clip-path:url(#SVGID_00000136403031898639014480000007634129243079861179_);fill:#212C46;}
	
		.st9{clip-path:url(#SVGID_00000123417415703784156440000001683893639754794425_);fill:none;stroke:#000000;stroke-width:2;stroke-miterlimit:10;stroke-opacity:0;}
	.st10{clip-path:url(#SVGID_00000023257867955867701120000003415504556454402468_);fill:#4A89BC;}
	
		.st11{clip-path:url(#SVGID_00000052079758847227937370000002003293736737821608_);fill:none;stroke:#000000;stroke-width:2;stroke-miterlimit:10;stroke-opacity:0;}
	.st12{clip-path:url(#SVGID_00000128483480438283697740000001361673302765055639_);fill:#4A89BC;}
	
		.st13{clip-path:url(#SVGID_00000036931795433921275050000014884142934453099672_);fill:none;stroke:#000000;stroke-width:2;stroke-miterlimit:10;stroke-opacity:0;}
	.st14{clip-path:url(#SVGID_00000181793742758519053260000002085850051259940998_);fill:#4A89BC;}
	
		.st15{clip-path:url(#SVGID_00000146488728970839206320000016836970149857475236_);fill:none;stroke:#000000;stroke-width:2;stroke-miterlimit:10;stroke-opacity:0;}
	.st16{clip-path:url(#SVGID_00000116927121325681956880000015414674516315578803_);fill:#DEBACB;}
	
		.st17{clip-path:url(#SVGID_00000173152858965767593220000008414102619242351254_);fill:none;stroke:#000000;stroke-width:2;stroke-miterlimit:10;stroke-opacity:0;}
	.st18{clip-path:url(#SVGID_00000149340894407510022940000013427957665532654996_);fill:#DEBACB;}
	
		.st19{clip-path:url(#SVGID_00000058584276485284656650000016345630757852375455_);fill:none;stroke:#000000;stroke-width:2;stroke-miterlimit:10;stroke-opacity:0;}
	.st20{clip-path:url(#SVGID_00000132076619767840213380000000048318048782787516_);fill:#DEBACB;}
	
		.st21{clip-path:url(#SVGID_00000179628255513405875860000010689894619181370516_);fill:none;stroke:#000000;stroke-width:2;stroke-miterlimit:10;stroke-opacity:0;}
	.st22{clip-path:url(#SVGID_00000040565849021487752650000006143573055082719660_);fill:#687CAB;}
	
		.st23{clip-path:url(#SVGID_00000104680251552993224690000011068924040136635565_);fill:none;stroke:#000000;stroke-width:2;stroke-miterlimit:10;stroke-opacity:0;}
	.st24{clip-path:url(#SVGID_00000142875423810531233890000008099879288322692024_);fill:#687CAB;}
	
		.st25{clip-path:url(#SVGID_00000000219232319936553370000013925317896753591209_);fill:none;stroke:#000000;stroke-width:2;stroke-miterlimit:10;stroke-opacity:0;}
	.st26{clip-path:url(#SVGID_00000046314204048287196610000005628497074118252459_);fill:#687CAB;}
	.st27{fill:#212C46;}
	.st28{fill:#1A1A1A;}
	.st29{fill:#4A89BC;}
	.st30{fill:#DEBACB;}
	.st31{fill:#687CAB;}
	.st32{fill:#757575;}
</style>
<path class="st0" d="M0,0h600v371H0V0z"/>
<path class="st1" d="M77.5,300.5h504"/>
<path class="st2" d="M77.5,251.5h504"/>
<path class="st2" d="M77.5,203.5h504"/>
<path class="st2" d="M77.5,154.5h504"/>
<path class="st2" d="M77.5,106.5h504"/>
<g>
	<g>
		<defs>
			<rect id="SVGID_1_" x="77.6" y="106.3" width="503.9" height="194.2"/>
		</defs>
		<clipPath id="SVGID_00000101815624930902230010000003329053395611689631_">
			<use xlink:href="#SVGID_1_"  style="overflow:visible;"/>
		</clipPath>
		
			<path style="clip-path:url(#SVGID_00000101815624930902230010000003329053395611689631_);fill:none;stroke:#000000;stroke-width:2;stroke-miterlimit:10;stroke-opacity:0;" d="
			M154,300h-22V137c0-1.1,0.9-2,2-2h18c1.1,0,2,0.9,2,2V300z"/>
	</g>
</g>
<g>
	<g>
		<defs>
			<rect id="SVGID_00000080910797708445094120000012413847216661656237_" x="77.6" y="106.3" width="503.9" height="194.2"/>
		</defs>
		<clipPath id="SVGID_00000119091153636073932340000004205640398231235459_">
			<use xlink:href="#SVGID_00000080910797708445094120000012413847216661656237_"  style="overflow:visible;"/>
		</clipPath>
		<path style="clip-path:url(#SVGID_00000119091153636073932340000004205640398231235459_);fill:#212C46;" d="M154,300h-22V137
			c0-1.1,0.9-2,2-2h18c1.1,0,2,0.9,2,2V300z"/>
	</g>
</g>
<g>
	<g>
		<defs>
			<rect id="SVGID_00000087414811603406377450000017130316832242832041_" x="77.6" y="106.3" width="503.9" height="194.2"/>
		</defs>
		<clipPath id="SVGID_00000072983294786720389100000001506127185734857105_">
			<use xlink:href="#SVGID_00000087414811603406377450000017130316832242832041_"  style="overflow:visible;"/>
		</clipPath>
		
			<path style="clip-path:url(#SVGID_00000072983294786720389100000001506127185734857105_);fill:none;stroke:#000000;stroke-width:2;stroke-miterlimit:10;stroke-opacity:0;" d="
			M305,300h-22V125c0-1.1,0.9-2,2-2h18c1.1,0,2,0.9,2,2V300z"/>
	</g>
</g>
<g>
	<g>
		<defs>
			<rect id="SVGID_00000085971350461678247430000005860989290559282823_" x="77.6" y="106.3" width="503.9" height="194.2"/>
		</defs>
		<clipPath id="SVGID_00000181055663317897911900000014539992647694536379_">
			<use xlink:href="#SVGID_00000085971350461678247430000005860989290559282823_"  style="overflow:visible;"/>
		</clipPath>
		<path style="clip-path:url(#SVGID_00000181055663317897911900000014539992647694536379_);fill:#212C46;" d="M305,300h-22V125
			c0-1.1,0.9-2,2-2h18c1.1,0,2,0.9,2,2V300z"/>
	</g>
</g>
<g>
	<g>
		<defs>
			<rect id="SVGID_00000172398000880260467250000006555646661987599750_" x="77.6" y="106.3" width="503.9" height="194.2"/>
		</defs>
		<clipPath id="SVGID_00000070119864102350054860000001173653015734033046_">
			<use xlink:href="#SVGID_00000172398000880260467250000006555646661987599750_"  style="overflow:visible;"/>
		</clipPath>
		
			<path style="clip-path:url(#SVGID_00000070119864102350054860000001173653015734033046_);fill:none;stroke:#000000;stroke-width:2;stroke-miterlimit:10;stroke-opacity:0;" d="
			M455,300h-22V123c0-1.1,0.9-2,2-2h18c1.1,0,2,0.9,2,2V300z"/>
	</g>
</g>
<g>
	<g>
		<defs>
			<rect id="SVGID_00000085937849149164984450000017147669858909438393_" x="77.6" y="106.3" width="503.9" height="194.2"/>
		</defs>
		<clipPath id="SVGID_00000098210575976952217040000015885871116000672939_">
			<use xlink:href="#SVGID_00000085937849149164984450000017147669858909438393_"  style="overflow:visible;"/>
		</clipPath>
		<path style="clip-path:url(#SVGID_00000098210575976952217040000015885871116000672939_);fill:#212C46;" d="M455,300h-22V123
			c0-1.1,0.9-2,2-2h18c1.1,0,2,0.9,2,2V300z"/>
	</g>
</g>
<g>
	<g>
		<defs>
			<rect id="SVGID_00000052081035338281238480000015191977936161648027_" x="77.6" y="106.3" width="503.9" height="194.2"/>
		</defs>
		<clipPath id="SVGID_00000174593790761075713630000003845832948050238632_">
			<use xlink:href="#SVGID_00000052081035338281238480000015191977936161648027_"  style="overflow:visible;"/>
		</clipPath>
		
			<path style="clip-path:url(#SVGID_00000174593790761075713630000003845832948050238632_);fill:none;stroke:#000000;stroke-width:2;stroke-miterlimit:10;stroke-opacity:0;" d="
			M178,300h-22V188c0-1.1,0.9-2,2-2h18c1.1,0,2,0.9,2,2V300z"/>
	</g>
</g>
<g>
	<g>
		<defs>
			<rect id="SVGID_00000064349894682169748840000002178710570747272584_" x="77.6" y="106.3" width="503.9" height="194.2"/>
		</defs>
		<clipPath id="SVGID_00000003090125188874272120000009653924259079443102_">
			<use xlink:href="#SVGID_00000064349894682169748840000002178710570747272584_"  style="overflow:visible;"/>
		</clipPath>
		<path style="clip-path:url(#SVGID_00000003090125188874272120000009653924259079443102_);fill:#4A89BC;" d="M178,300h-22V188
			c0-1.1,0.9-2,2-2h18c1.1,0,2,0.9,2,2V300z"/>
	</g>
</g>
<g>
	<g>
		<defs>
			<rect id="SVGID_00000066484160861574483580000001195557873842580369_" x="77.6" y="106.3" width="503.9" height="194.2"/>
		</defs>
		<clipPath id="SVGID_00000093147744080495864170000005309203136616194974_">
			<use xlink:href="#SVGID_00000066484160861574483580000001195557873842580369_"  style="overflow:visible;"/>
		</clipPath>
		
			<path style="clip-path:url(#SVGID_00000093147744080495864170000005309203136616194974_);fill:none;stroke:#000000;stroke-width:2;stroke-miterlimit:10;stroke-opacity:0;" d="
			M329,300h-22V184c0-1.1,0.9-2,2-2h18c1.1,0,2,0.9,2,2V300z"/>
	</g>
</g>
<g>
	<g>
		<defs>
			<rect id="SVGID_00000039120263055497385500000017208144619689026195_" x="77.6" y="106.3" width="503.9" height="194.2"/>
		</defs>
		<clipPath id="SVGID_00000170959827571143984200000008522150657949485472_">
			<use xlink:href="#SVGID_00000039120263055497385500000017208144619689026195_"  style="overflow:visible;"/>
		</clipPath>
		<path style="clip-path:url(#SVGID_00000170959827571143984200000008522150657949485472_);fill:#4A89BC;" d="M329,300h-22V184
			c0-1.1,0.9-2,2-2h18c1.1,0,2,0.9,2,2V300z"/>
	</g>
</g>
<g>
	<g>
		<defs>
			<rect id="SVGID_00000152234093580149281390000015273127325145423263_" x="77.6" y="106.3" width="503.9" height="194.2"/>
		</defs>
		<clipPath id="SVGID_00000085227081341165015750000015482106351008743056_">
			<use xlink:href="#SVGID_00000152234093580149281390000015273127325145423263_"  style="overflow:visible;"/>
		</clipPath>
		
			<path style="clip-path:url(#SVGID_00000085227081341165015750000015482106351008743056_);fill:none;stroke:#000000;stroke-width:2;stroke-miterlimit:10;stroke-opacity:0;" d="
			M479,300h-22V193c0-1.1,0.9-2,2-2h18c1.1,0,2,0.9,2,2V300z"/>
	</g>
</g>
<g>
	<g>
		<defs>
			<rect id="SVGID_00000172434193564710458480000010003486752172858300_" x="77.6" y="106.3" width="503.9" height="194.2"/>
		</defs>
		<clipPath id="SVGID_00000123437983095293572600000010013739625154592643_">
			<use xlink:href="#SVGID_00000172434193564710458480000010003486752172858300_"  style="overflow:visible;"/>
		</clipPath>
		<path style="clip-path:url(#SVGID_00000123437983095293572600000010013739625154592643_);fill:#4A89BC;" d="M479,300h-22V193
			c0-1.1,0.9-2,2-2h18c1.1,0,2,0.9,2,2V300z"/>
	</g>
</g>
<g>
	<g>
		<defs>
			<rect id="SVGID_00000088830846476252418420000002627016356057428139_" x="77.6" y="106.3" width="503.9" height="194.2"/>
		</defs>
		<clipPath id="SVGID_00000075873858310504199770000006744268266408849340_">
			<use xlink:href="#SVGID_00000088830846476252418420000002627016356057428139_"  style="overflow:visible;"/>
		</clipPath>
		
			<path style="clip-path:url(#SVGID_00000075873858310504199770000006744268266408849340_);fill:none;stroke:#000000;stroke-width:2;stroke-miterlimit:10;stroke-opacity:0;" d="
			M202,300h-22v-22c0-1.1,0.9-2,2-2h18c1.1,0,2,0.9,2,2V300z"/>
	</g>
</g>
<g>
	<g>
		<defs>
			<rect id="SVGID_00000160874865918407700330000007590564411654418858_" x="77.6" y="106.3" width="503.9" height="194.2"/>
		</defs>
		<clipPath id="SVGID_00000062168328316325606850000009474399381141405066_">
			<use xlink:href="#SVGID_00000160874865918407700330000007590564411654418858_"  style="overflow:visible;"/>
		</clipPath>
		<path style="clip-path:url(#SVGID_00000062168328316325606850000009474399381141405066_);fill:#DEBACB;" d="M202,300h-22v-22
			c0-1.1,0.9-2,2-2h18c1.1,0,2,0.9,2,2V300z"/>
	</g>
</g>
<g>
	<g>
		<defs>
			<rect id="SVGID_00000029751325305599684980000017873900718931558837_" x="77.6" y="106.3" width="503.9" height="194.2"/>
		</defs>
		<clipPath id="SVGID_00000016780673770635667270000006177773318764461246_">
			<use xlink:href="#SVGID_00000029751325305599684980000017873900718931558837_"  style="overflow:visible;"/>
		</clipPath>
		
			<path style="clip-path:url(#SVGID_00000016780673770635667270000006177773318764461246_);fill:none;stroke:#000000;stroke-width:2;stroke-miterlimit:10;stroke-opacity:0;" d="
			M353,300h-22v-32c0-1.1,0.9-2,2-2h18c1.1,0,2,0.9,2,2V300z"/>
	</g>
</g>
<g>
	<g>
		<defs>
			<rect id="SVGID_00000032640289457769362380000008386540692570358918_" x="77.6" y="106.3" width="503.9" height="194.2"/>
		</defs>
		<clipPath id="SVGID_00000170251169181998183720000016533704538495948698_">
			<use xlink:href="#SVGID_00000032640289457769362380000008386540692570358918_"  style="overflow:visible;"/>
		</clipPath>
		<path style="clip-path:url(#SVGID_00000170251169181998183720000016533704538495948698_);fill:#DEBACB;" d="M353,300h-22v-32
			c0-1.1,0.9-2,2-2h18c1.1,0,2,0.9,2,2V300z"/>
	</g>
</g>
<g>
	<g>
		<defs>
			<rect id="SVGID_00000109744463200018599540000003800840980000602808_" x="77.6" y="106.3" width="503.9" height="194.2"/>
		</defs>
		<clipPath id="SVGID_00000078035239855793149070000004823798618508680364_">
			<use xlink:href="#SVGID_00000109744463200018599540000003800840980000602808_"  style="overflow:visible;"/>
		</clipPath>
		
			<path style="clip-path:url(#SVGID_00000078035239855793149070000004823798618508680364_);fill:none;stroke:#000000;stroke-width:2;stroke-miterlimit:10;stroke-opacity:0;" d="
			M503,300h-22v-44c0-1.1,0.9-2,2-2h18c1.1,0,2,0.9,2,2V300z"/>
	</g>
</g>
<g>
	<g>
		<defs>
			<rect id="SVGID_00000004520960173683562400000000838750895412843652_" x="77.6" y="106.3" width="503.9" height="194.2"/>
		</defs>
		<clipPath id="SVGID_00000067959165480401663260000004106060593123819905_">
			<use xlink:href="#SVGID_00000004520960173683562400000000838750895412843652_"  style="overflow:visible;"/>
		</clipPath>
		<path style="clip-path:url(#SVGID_00000067959165480401663260000004106060593123819905_);fill:#DEBACB;" d="M503,300h-22v-44
			c0-1.1,0.9-2,2-2h18c1.1,0,2,0.9,2,2V300z"/>
	</g>
</g>
<g>
	<g>
		<defs>
			<rect id="SVGID_00000049904287903714164950000000602888405069467541_" x="77.6" y="106.3" width="503.9" height="194.2"/>
		</defs>
		<clipPath id="SVGID_00000177474511562545815850000006641656805325990298_">
			<use xlink:href="#SVGID_00000049904287903714164950000000602888405069467541_"  style="overflow:visible;"/>
		</clipPath>
		
			<path style="clip-path:url(#SVGID_00000177474511562545815850000006641656805325990298_);fill:none;stroke:#000000;stroke-width:2;stroke-miterlimit:10;stroke-opacity:0;" d="
			M226,300h-22v-22c0-1.1,0.9-2,2-2h18c1.1,0,2,0.9,2,2V300z"/>
	</g>
</g>
<g>
	<g>
		<defs>
			<rect id="SVGID_00000022536480152989821870000008423845018826470291_" x="77.6" y="106.3" width="503.9" height="194.2"/>
		</defs>
		<clipPath id="SVGID_00000181082895419848376230000016803647126438069643_">
			<use xlink:href="#SVGID_00000022536480152989821870000008423845018826470291_"  style="overflow:visible;"/>
		</clipPath>
		<path style="clip-path:url(#SVGID_00000181082895419848376230000016803647126438069643_);fill:#687CAB;" d="M226,300h-22v-22
			c0-1.1,0.9-2,2-2h18c1.1,0,2,0.9,2,2V300z"/>
	</g>
</g>
<g>
	<g>
		<defs>
			<rect id="SVGID_00000148626718338925762310000010573065656034244492_" x="77.6" y="106.3" width="503.9" height="194.2"/>
		</defs>
		<clipPath id="SVGID_00000099634682004548056350000013934712887863734692_">
			<use xlink:href="#SVGID_00000148626718338925762310000010573065656034244492_"  style="overflow:visible;"/>
		</clipPath>
		
			<path style="clip-path:url(#SVGID_00000099634682004548056350000013934712887863734692_);fill:none;stroke:#000000;stroke-width:2;stroke-miterlimit:10;stroke-opacity:0;" d="
			M377,300h-22v-17c0-1.1,0.9-2,2-2h18c1.1,0,2,0.9,2,2V300z"/>
	</g>
</g>
<g>
	<g>
		<defs>
			<rect id="SVGID_00000072972966090079833730000016064134987287201462_" x="77.6" y="106.3" width="503.9" height="194.2"/>
		</defs>
		<clipPath id="SVGID_00000145765984924338373330000014980595453706832562_">
			<use xlink:href="#SVGID_00000072972966090079833730000016064134987287201462_"  style="overflow:visible;"/>
		</clipPath>
		<path style="clip-path:url(#SVGID_00000145765984924338373330000014980595453706832562_);fill:#687CAB;" d="M377,300h-22v-17
			c0-1.1,0.9-2,2-2h18c1.1,0,2,0.9,2,2V300z"/>
	</g>
</g>
<g>
	<g>
		<defs>
			<rect id="SVGID_00000003100088853922626750000017666273597444226737_" x="77.6" y="106.3" width="503.9" height="194.2"/>
		</defs>
		<clipPath id="SVGID_00000132059412096782849860000004573938466105267866_">
			<use xlink:href="#SVGID_00000003100088853922626750000017666273597444226737_"  style="overflow:visible;"/>
		</clipPath>
		
			<path style="clip-path:url(#SVGID_00000132059412096782849860000004573938466105267866_);fill:none;stroke:#000000;stroke-width:2;stroke-miterlimit:10;stroke-opacity:0;" d="
			M527,300h-22v-17c0-1.1,0.9-2,2-2h18c1.1,0,2,0.9,2,2V300z"/>
	</g>
</g>
<g>
	<g>
		<defs>
			<rect id="SVGID_00000036253120421017255430000003139790589945938821_" x="77.6" y="106.3" width="503.9" height="194.2"/>
		</defs>
		<clipPath id="SVGID_00000083050900372875677240000004360957591200707500_">
			<use xlink:href="#SVGID_00000036253120421017255430000003139790589945938821_"  style="overflow:visible;"/>
		</clipPath>
		<path style="clip-path:url(#SVGID_00000083050900372875677240000004360957591200707500_);fill:#687CAB;" d="M527,300h-22v-17
			c0-1.1,0.9-2,2-2h18c1.1,0,2,0.9,2,2V300z"/>
	</g>
</g>
<path d="M318.8,351.8l-0.1-1c0.2,0.1,0.4,0.1,0.6,0.1s0.4,0,0.5-0.1s0.3-0.2,0.4-0.3c0.1-0.1,0.2-0.4,0.3-0.8c0-0.1,0-0.1,0.1-0.2
	l-2.4-6.2h1.1l1.3,3.6c0.2,0.5,0.3,0.9,0.5,1.5c0.1-0.5,0.3-1,0.4-1.4l1.3-3.6h1l-2.4,6.3c-0.3,0.7-0.5,1.1-0.6,1.4
	c-0.2,0.4-0.4,0.6-0.7,0.8c-0.2,0.2-0.5,0.3-0.9,0.2C319.2,352,319,351.9,318.8,351.8z M328,347.5l1.1,0.1c-0.2,0.6-0.5,1.1-1,1.5
	s-1.1,0.5-1.8,0.5c-0.9,0-1.6-0.3-2.2-0.8c-0.5-0.6-0.8-1.3-0.8-2.4c0-1,0.3-1.8,0.8-2.4s1.2-0.9,2.1-0.9c0.8,0,1.5,0.3,2,0.8
	c0.5,0.6,0.8,1.4,0.8,2.4c0,0.1,0,0.2,0,0.3h-4.6c0,0.7,0.2,1.2,0.6,1.6c0.3,0.4,0.8,0.5,1.3,0.5c0.4,0,0.7-0.1,1-0.3
	C327.7,348.2,327.9,347.9,328,347.5z M324.6,345.7h3.5c0-0.5-0.2-0.9-0.4-1.2c-0.3-0.4-0.8-0.6-1.3-0.6s-0.9,0.2-1.2,0.5
	C324.8,344.8,324.6,345.2,324.6,345.7z M334.9,348.7c-0.4,0.3-0.8,0.6-1.1,0.7c-0.4,0.1-0.7,0.2-1.2,0.2c-0.7,0-1.2-0.2-1.6-0.5
	s-0.5-0.8-0.5-1.3c0-0.3,0.1-0.6,0.2-0.8c0.1-0.3,0.3-0.5,0.5-0.6c0.2-0.2,0.5-0.3,0.8-0.3c0.2-0.1,0.5-0.1,0.9-0.2
	c0.8-0.1,1.5-0.2,1.9-0.4c0-0.1,0-0.2,0-0.3c0-0.4-0.1-0.7-0.3-0.9c-0.3-0.2-0.7-0.3-1.2-0.3s-0.9,0.1-1.1,0.3
	c-0.2,0.2-0.4,0.5-0.5,0.9l-1-0.1c0.1-0.4,0.2-0.8,0.5-1.1c0.2-0.3,0.5-0.5,0.9-0.6s0.9-0.2,1.4-0.2s1,0.1,1.3,0.2s0.6,0.3,0.7,0.5
	c0.2,0.2,0.3,0.4,0.3,0.7c0,0.2,0,0.5,0,1v1.4c0,1,0,1.6,0.1,1.9s0.1,0.5,0.3,0.8h-1.1C335,349.2,334.9,349,334.9,348.7z
	 M334.8,346.3c-0.4,0.2-1,0.3-1.7,0.4c-0.4,0.1-0.7,0.1-0.9,0.2c-0.2,0.1-0.3,0.2-0.4,0.3c-0.1,0.1-0.1,0.3-0.1,0.5
	c0,0.3,0.1,0.5,0.3,0.7c0.2,0.2,0.5,0.3,0.9,0.3s0.8-0.1,1.1-0.3c0.3-0.2,0.6-0.4,0.7-0.7c0.1-0.2,0.2-0.6,0.2-1v-0.4H334.8z
	 M337.8,349.5v-6.2h1v0.9c0.2-0.4,0.5-0.7,0.7-0.9c0.2-0.1,0.4-0.2,0.7-0.2c0.4,0,0.7,0.1,1.1,0.3l-0.4,1c-0.3-0.2-0.5-0.2-0.8-0.2
	c-0.2,0-0.5,0.1-0.6,0.2c-0.2,0.1-0.3,0.3-0.4,0.6c-0.1,0.4-0.2,0.8-0.2,1.2v3.3L337.8,349.5L337.8,349.5z"/>
<path d="M29.6,263.9H21v-3c0-0.7,0-1.2,0.1-1.5c0.1-0.5,0.3-0.9,0.6-1.2c0.4-0.5,0.9-0.8,1.5-1s1.3-0.3,2-0.3s1.2,0.1,1.7,0.2
	s0.9,0.3,1.2,0.6c0.3,0.2,0.6,0.5,0.8,0.8c0.2,0.3,0.3,0.6,0.4,1s0.1,0.9,0.1,1.4v3H29.6z M28.5,262.8V261c0-0.6-0.1-1-0.2-1.3
	s-0.3-0.6-0.5-0.8c-0.3-0.3-0.6-0.5-1.1-0.6c-0.5-0.2-1-0.2-1.7-0.2c-0.9,0-1.6,0.2-2.1,0.5s-0.8,0.6-1,1.1
	c-0.1,0.3-0.2,0.8-0.2,1.5v1.8h6.8V262.8z M27.6,250.8l0.1-1.1c0.6,0.2,1.1,0.5,1.5,1s0.5,1.1,0.5,1.8c0,0.9-0.3,1.6-0.8,2.2
	c-0.6,0.5-1.3,0.8-2.4,0.8c-1,0-1.8-0.3-2.4-0.8s-0.9-1.2-0.9-2.1c0-0.8,0.3-1.5,0.8-2c0.6-0.5,1.4-0.8,2.4-0.8c0.1,0,0.2,0,0.3,0
	v4.6c0.7,0,1.2-0.2,1.6-0.6c0.4-0.3,0.5-0.8,0.5-1.3c0-0.4-0.1-0.7-0.3-1C28.3,251.2,28,251,27.6,250.8z M25.8,254.3v-3.5
	c-0.5,0-0.9,0.2-1.2,0.4c-0.4,0.3-0.6,0.8-0.6,1.3s0.2,0.9,0.5,1.2C24.9,254.1,25.3,254.2,25.8,254.3z M28.8,244
	c0.3,0.4,0.6,0.8,0.7,1.1c0.1,0.4,0.2,0.7,0.2,1.2c0,0.7-0.2,1.2-0.5,1.6c-0.3,0.4-0.8,0.5-1.3,0.5c-0.3,0-0.6-0.1-0.8-0.2
	c-0.3-0.1-0.5-0.3-0.6-0.5c-0.2-0.2-0.3-0.5-0.3-0.8c-0.1-0.2-0.1-0.5-0.2-0.9c-0.1-0.8-0.2-1.5-0.4-1.9c-0.1,0-0.2,0-0.3,0
	c-0.4,0-0.7,0.1-0.9,0.3c-0.2,0.3-0.3,0.7-0.3,1.2s0.1,0.9,0.3,1.1c0.2,0.2,0.5,0.4,0.9,0.5l-0.1,1c-0.4-0.1-0.8-0.3-1.1-0.5
	c-0.3-0.2-0.5-0.5-0.6-0.9s-0.2-0.9-0.2-1.4s0.1-1,0.2-1.3s0.3-0.6,0.5-0.7c0.2-0.2,0.4-0.3,0.7-0.3c0.2,0,0.5,0,1,0h1.4
	c1,0,1.6,0,1.9-0.1s0.5-0.1,0.8-0.3v1.1C29.3,243.9,29.1,244,28.8,244z M26.4,244.1c0.2,0.4,0.3,1,0.4,1.7c0.1,0.4,0.1,0.7,0.2,0.9
	s0.2,0.3,0.3,0.4c0.1,0.1,0.3,0.1,0.5,0.1c0.3,0,0.5-0.1,0.7-0.3s0.3-0.5,0.3-0.9s-0.1-0.8-0.3-1.1c-0.2-0.3-0.4-0.6-0.7-0.7
	c-0.2-0.1-0.6-0.2-1-0.2h-0.4V244.1z M28.6,238.8l0.9-0.2c0.1,0.3,0.1,0.6,0.1,0.8c0,0.4-0.1,0.7-0.2,0.9s-0.3,0.4-0.5,0.5
	s-0.6,0.1-1.2,0.1h-3.6v0.8h-0.8v-0.8h-1.5l-0.6-1h2.2v-1.1h0.8v1.1h3.6c0.3,0,0.5,0,0.6,0s0.2-0.1,0.2-0.2c0.1-0.1,0.1-0.2,0.1-0.4
	C28.6,239.1,28.6,239,28.6,238.8z M29.6,238.1H21v-1h3c-0.6-0.5-0.8-1.1-0.8-1.9c0-0.5,0.1-0.9,0.3-1.2c0.2-0.3,0.4-0.6,0.8-0.7
	c0.3-0.1,0.8-0.2,1.4-0.2h3.9v1h-3.9c-0.5,0-0.9,0.1-1.2,0.3c-0.2,0.2-0.4,0.6-0.4,1c0,0.3,0.1,0.6,0.2,0.9c0.2,0.3,0.4,0.5,0.7,0.6
	c0.3,0.1,0.7,0.2,1.1,0.2h3.4v1H29.6z M27.7,231.5l-0.2-1c0.4-0.1,0.7-0.2,1-0.5c0.2-0.3,0.3-0.7,0.3-1.1c0-0.5-0.1-0.8-0.3-1.1
	c-0.2-0.2-0.4-0.4-0.7-0.4c-0.2,0-0.4,0.1-0.6,0.3c-0.1,0.1-0.2,0.5-0.4,1.1c-0.2,0.8-0.4,1.3-0.5,1.6s-0.3,0.5-0.6,0.7
	c-0.2,0.2-0.5,0.2-0.8,0.2s-0.5-0.1-0.8-0.2c-0.2-0.1-0.4-0.3-0.6-0.5c-0.1-0.2-0.2-0.4-0.3-0.7c-0.1-0.3-0.1-0.6-0.1-0.9
	c0-0.5,0.1-0.9,0.2-1.3c0.1-0.4,0.3-0.7,0.6-0.8c0.2-0.2,0.6-0.3,1-0.4l0.1,1c-0.3,0-0.6,0.2-0.7,0.4c-0.2,0.2-0.3,0.5-0.3,1
	s0.1,0.8,0.2,1c0.2,0.2,0.3,0.3,0.6,0.3c0.1,0,0.3,0,0.4-0.1s0.2-0.2,0.3-0.4c0-0.1,0.1-0.4,0.3-0.9c0.2-0.8,0.4-1.3,0.5-1.6
	s0.3-0.5,0.5-0.7s0.5-0.3,0.9-0.2c0.4,0,0.7,0.1,1,0.3s0.5,0.5,0.7,0.9s0.2,0.8,0.2,1.3c0,0.8-0.2,1.4-0.5,1.9
	C28.8,231.1,28.3,231.4,27.7,231.5z M29.6,220.9H21v-3.2c0-0.6,0-1,0.1-1.3c0.1-0.4,0.2-0.8,0.4-1.1c0.2-0.3,0.5-0.5,0.8-0.7
	c0.4-0.2,0.7-0.3,1.2-0.3c0.7,0,1.3,0.2,1.9,0.7c0.5,0.5,0.8,1.3,0.8,2.5v2.2h3.5L29.6,220.9L29.6,220.9z M25.1,219.8v-2.2
	c0-0.7-0.1-1.3-0.4-1.6s-0.7-0.5-1.2-0.5c-0.4,0-0.7,0.1-0.9,0.3c-0.3,0.2-0.4,0.4-0.5,0.7c-0.1,0.2-0.1,0.6-0.1,1.1v2.2H25.1z
	 M27.6,208.8l0.1-1.1c0.6,0.2,1.1,0.5,1.5,1s0.5,1.1,0.5,1.8c0,0.9-0.3,1.6-0.8,2.2c-0.6,0.5-1.3,0.8-2.4,0.8c-1,0-1.8-0.3-2.4-0.8
	s-0.9-1.2-0.9-2.1c0-0.8,0.3-1.5,0.8-2c0.6-0.5,1.4-0.8,2.4-0.8c0.1,0,0.2,0,0.3,0v4.6c0.7,0,1.2-0.2,1.6-0.6
	c0.4-0.3,0.5-0.8,0.5-1.3c0-0.4-0.1-0.7-0.3-1C28.3,209.2,28,209,27.6,208.8z M25.8,212.3v-3.5c-0.5,0-0.9,0.2-1.2,0.4
	c-0.4,0.3-0.6,0.8-0.6,1.3s0.2,0.9,0.5,1.2C24.9,212.1,25.3,212.2,25.8,212.3z M29.6,206.1h-6.2v-1h0.9c-0.4-0.2-0.7-0.5-0.9-0.7
	c-0.1-0.2-0.2-0.4-0.2-0.7c0-0.4,0.1-0.7,0.3-1.1l1,0.4c-0.2,0.3-0.2,0.5-0.2,0.8c0,0.2,0.1,0.5,0.2,0.6c0.1,0.2,0.3,0.3,0.6,0.4
	c0.4,0.1,0.8,0.2,1.2,0.2h3.3V206.1z M29.6,195.4v1h-6.7c0.2,0.3,0.5,0.6,0.7,1s0.4,0.8,0.5,1.1h-1c-0.3-0.6-0.6-1.1-1-1.5
	s-0.8-0.8-1.2-1v-0.7L29.6,195.4L29.6,195.4z M25.3,192.4c-1,0-1.8-0.1-2.5-0.3c-0.6-0.2-1.1-0.5-1.4-0.9s-0.5-0.9-0.5-1.6
	c0-0.5,0.1-0.9,0.3-1.2c0.2-0.4,0.5-0.6,0.8-0.9c0.3-0.2,0.8-0.4,1.3-0.5s1.2-0.2,2-0.2c1,0,1.8,0.1,2.4,0.3s1.1,0.5,1.4,0.9
	s0.5,0.9,0.5,1.6c0,0.8-0.3,1.5-0.9,2C28.1,192.1,26.9,192.4,25.3,192.4z M25.3,191.3c1.4,0,2.3-0.2,2.8-0.5s0.7-0.7,0.7-1.2
	s-0.2-0.9-0.7-1.2s-1.4-0.5-2.8-0.5s-2.4,0.2-2.8,0.5c-0.5,0.3-0.7,0.7-0.7,1.2s0.2,0.9,0.6,1.2C22.9,191.1,23.9,191.3,25.3,191.3z
	 M25.3,185.4c-1,0-1.8-0.1-2.5-0.3c-0.6-0.2-1.1-0.5-1.4-0.9s-0.5-0.9-0.5-1.6c0-0.5,0.1-0.9,0.3-1.2c0.2-0.4,0.5-0.6,0.8-0.9
	c0.3-0.2,0.8-0.4,1.3-0.5s1.2-0.2,2-0.2c1,0,1.8,0.1,2.4,0.3s1.1,0.5,1.4,0.9s0.5,0.9,0.5,1.6c0,0.8-0.3,1.5-0.9,2
	C28.1,185.1,26.9,185.4,25.3,185.4z M25.3,184.3c1.4,0,2.3-0.2,2.8-0.5s0.7-0.7,0.7-1.2s-0.2-0.9-0.7-1.2s-1.4-0.5-2.8-0.5
	s-2.4,0.2-2.8,0.5c-0.5,0.3-0.7,0.7-0.7,1.2s0.2,0.9,0.6,1.2C22.9,184.1,23.9,184.3,25.3,184.3z M29.6,177.8h-1.2v-1.2h1.2
	c0.4,0,0.8,0.1,1.1,0.2c0.3,0.2,0.5,0.4,0.6,0.7l-0.5,0.3c-0.1-0.2-0.2-0.4-0.4-0.5c-0.2-0.1-0.5-0.2-0.8-0.2
	C29.6,177.1,29.6,177.8,29.6,177.8z M25.3,175.4c-1,0-1.8-0.1-2.5-0.3c-0.6-0.2-1.1-0.5-1.4-0.9s-0.5-0.9-0.5-1.6
	c0-0.5,0.1-0.9,0.3-1.2c0.2-0.4,0.5-0.6,0.8-0.9c0.3-0.2,0.8-0.4,1.3-0.5s1.2-0.2,2-0.2c1,0,1.8,0.1,2.4,0.3s1.1,0.5,1.4,0.9
	s0.5,0.9,0.5,1.6c0,0.8-0.3,1.5-0.9,2C28.1,175.1,26.9,175.4,25.3,175.4z M25.3,174.3c1.4,0,2.3-0.2,2.8-0.5s0.7-0.7,0.7-1.2
	s-0.2-0.9-0.7-1.2s-1.4-0.5-2.8-0.5s-2.4,0.2-2.8,0.5c-0.5,0.3-0.7,0.7-0.7,1.2s0.2,0.9,0.6,1.2C22.9,174.1,23.9,174.3,25.3,174.3z
	 M25.3,168.4c-1,0-1.8-0.1-2.5-0.3c-0.6-0.2-1.1-0.5-1.4-0.9s-0.5-0.9-0.5-1.6c0-0.5,0.1-0.9,0.3-1.2c0.2-0.4,0.5-0.6,0.8-0.9
	c0.3-0.2,0.8-0.4,1.3-0.5s1.2-0.2,2-0.2c1,0,1.8,0.1,2.4,0.3s1.1,0.5,1.4,0.9s0.5,0.9,0.5,1.6c0,0.8-0.3,1.5-0.9,2
	C28.1,168.1,26.9,168.4,25.3,168.4z M25.3,167.3c1.4,0,2.3-0.2,2.8-0.5s0.7-0.7,0.7-1.2s-0.2-0.9-0.7-1.2s-1.4-0.5-2.8-0.5
	s-2.4,0.2-2.8,0.5c-0.5,0.3-0.7,0.7-0.7,1.2s0.2,0.9,0.6,1.2C22.9,167.1,23.9,167.3,25.3,167.3z M25.3,161.4c-1,0-1.8-0.1-2.5-0.3
	c-0.6-0.2-1.1-0.5-1.4-0.9s-0.5-0.9-0.5-1.6c0-0.5,0.1-0.9,0.3-1.2c0.2-0.4,0.5-0.6,0.8-0.9c0.3-0.2,0.8-0.4,1.3-0.5s1.2-0.2,2-0.2
	c1,0,1.8,0.1,2.4,0.3s1.1,0.5,1.4,0.9s0.5,0.9,0.5,1.6c0,0.8-0.3,1.5-0.9,2C28.1,161.1,26.9,161.4,25.3,161.4z M25.3,160.3
	c1.4,0,2.3-0.2,2.8-0.5s0.7-0.7,0.7-1.2s-0.2-0.9-0.7-1.2s-1.4-0.5-2.8-0.5s-2.4,0.2-2.8,0.5c-0.5,0.3-0.7,0.7-0.7,1.2
	s0.2,0.9,0.6,1.2C22.9,160.1,23.9,160.3,25.3,160.3z"/>
<path d="M65.1,300.2c0-1,0.1-1.8,0.3-2.5c0.2-0.6,0.5-1.1,0.9-1.4s0.9-0.5,1.6-0.5c0.5,0,0.9,0.1,1.2,0.3c0.4,0.2,0.6,0.5,0.9,0.8
	c0.2,0.3,0.4,0.8,0.5,1.3s0.2,1.2,0.2,2c0,1-0.1,1.8-0.3,2.4c-0.2,0.6-0.5,1.1-0.9,1.4s-0.9,0.5-1.6,0.5c-0.8,0-1.5-0.3-2-0.9
	C65.3,303,65.1,301.8,65.1,300.2z M66.1,300.2c0,1.4,0.2,2.3,0.5,2.8s0.7,0.7,1.2,0.7s0.9-0.2,1.2-0.7c0.3-0.5,0.5-1.4,0.5-2.8
	s-0.2-2.4-0.5-2.8c-0.3-0.5-0.7-0.7-1.2-0.7s-0.9,0.2-1.2,0.6C66.3,297.8,66.1,298.8,66.1,300.2z"/>
<path d="M70.6,254.9v1h-5.7c0-0.2,0-0.5,0.1-0.7c0.1-0.4,0.4-0.8,0.7-1.1c0.3-0.4,0.8-0.8,1.4-1.3c0.9-0.8,1.6-1.4,1.9-1.8
	c0.3-0.4,0.5-0.9,0.5-1.3c0-0.4-0.2-0.8-0.5-1c-0.3-0.3-0.7-0.4-1.2-0.4s-0.9,0.2-1.2,0.5c-0.3,0.3-0.5,0.7-0.5,1.3L65,250
	c0.1-0.8,0.3-1.4,0.8-1.8c0.5-0.4,1.1-0.6,2-0.6s1.5,0.2,2,0.7s0.7,1,0.7,1.7c0,0.3-0.1,0.7-0.2,1s-0.4,0.7-0.7,1
	c-0.3,0.4-0.9,0.9-1.6,1.5c-0.6,0.5-1,0.9-1.2,1.1c-0.2,0.2-0.3,0.4-0.4,0.6h4.2V254.9z"/>
<path d="M68.4,207.4v-2.1h-3.7v-1l3.9-5.6h0.9v5.6h1.2v1h-1.2v2.1H68.4z M68.4,204.3v-3.9l-2.7,3.9H68.4z"/>
<path d="M70.5,152.3l-1,0.1c-0.1-0.4-0.2-0.7-0.4-0.9c-0.3-0.3-0.6-0.5-1.1-0.5c-0.3,0-0.6,0.1-0.9,0.3s-0.6,0.6-0.8,1.1
	c-0.2,0.5-0.3,1.1-0.3,2c0.2-0.4,0.6-0.7,0.9-0.9c0.4-0.2,0.8-0.3,1.2-0.3c0.7,0,1.3,0.3,1.8,0.8s0.8,1.2,0.8,2c0,0.5-0.1,1-0.4,1.5
	c-0.2,0.5-0.5,0.8-1,1.1c-0.4,0.2-0.9,0.4-1.4,0.4c-0.9,0-1.6-0.3-2.2-1c-0.6-0.6-0.8-1.7-0.8-3.2c0-1.7,0.3-2.9,0.9-3.6
	c0.5-0.7,1.2-1,2.2-1c0.7,0,1.2,0.2,1.7,0.6C70.2,151.2,70.4,151.7,70.5,152.3z M66.2,156c0,0.4,0.1,0.7,0.2,1
	c0.2,0.3,0.4,0.6,0.6,0.8c0.3,0.2,0.6,0.3,0.9,0.3c0.4,0,0.8-0.2,1.1-0.5c0.3-0.4,0.5-0.9,0.5-1.5s-0.2-1.1-0.5-1.4
	c-0.3-0.3-0.7-0.5-1.2-0.5s-0.9,0.2-1.2,0.5C66.4,155,66.2,155.5,66.2,156z"/>
<path d="M66.7,105.6c-0.4-0.2-0.8-0.4-1-0.7c-0.2-0.3-0.3-0.7-0.3-1.1c0-0.6,0.2-1.2,0.7-1.6s1.1-0.6,1.8-0.6c0.8,0,1.4,0.2,1.8,0.7
	s0.7,1,0.7,1.6c0,0.4-0.1,0.7-0.3,1c-0.2,0.3-0.5,0.5-1,0.7c0.5,0.2,0.9,0.4,1.2,0.8c0.3,0.4,0.4,0.8,0.4,1.4c0,0.7-0.3,1.3-0.8,1.8
	s-1.2,0.8-2,0.8s-1.5-0.2-2-0.8s-0.8-1.1-0.8-1.9c0-0.6,0.1-1,0.4-1.4C65.7,106,66.2,105.8,66.7,105.6z M66.5,103.8
	c0,0.4,0.1,0.7,0.4,1s0.6,0.4,1,0.4s0.7-0.1,1-0.4s0.4-0.6,0.4-1s-0.1-0.7-0.4-1s-0.6-0.4-1-0.4s-0.7,0.1-1,0.4
	C66.6,103.2,66.5,103.5,66.5,103.8z M66.1,107.8c0,0.3,0.1,0.6,0.2,0.9s0.4,0.5,0.6,0.7s0.6,0.2,0.9,0.2c0.5,0,0.9-0.2,1.2-0.5
	c0.3-0.3,0.5-0.7,0.5-1.2s-0.2-0.9-0.5-1.3c-0.3-0.3-0.8-0.5-1.3-0.5s-0.9,0.2-1.2,0.5C66.3,106.9,66.1,107.3,66.1,107.8z"/>
<path d="M171.1,316.4v1h-5.7c0-0.2,0-0.5,0.1-0.7c0.1-0.4,0.4-0.8,0.7-1.1c0.3-0.4,0.8-0.8,1.4-1.3c0.9-0.8,1.6-1.4,1.9-1.8
	c0.3-0.4,0.5-0.9,0.5-1.3s-0.2-0.8-0.5-1c-0.3-0.3-0.7-0.4-1.2-0.4s-0.9,0.2-1.2,0.5s-0.5,0.7-0.5,1.3l-1.1-0.1
	c0.1-0.8,0.3-1.4,0.8-1.8s1.1-0.6,2-0.6s1.5,0.2,2,0.7s0.7,1,0.7,1.7c0,0.3-0.1,0.7-0.2,1c-0.1,0.3-0.4,0.7-0.7,1
	c-0.3,0.4-0.9,0.9-1.6,1.5c-0.6,0.5-1,0.9-1.2,1.1s-0.3,0.4-0.4,0.6h4.2V316.4z M172.6,313.2c0-1,0.1-1.8,0.3-2.5
	c0.2-0.6,0.5-1.1,0.9-1.4s0.9-0.5,1.6-0.5c0.5,0,0.9,0.1,1.2,0.3c0.4,0.2,0.6,0.5,0.9,0.8c0.2,0.3,0.4,0.8,0.5,1.3s0.2,1.2,0.2,2
	c0,1-0.1,1.8-0.3,2.4s-0.5,1.1-0.9,1.4s-0.9,0.5-1.6,0.5c-0.8,0-1.5-0.3-2-0.9C172.9,316,172.6,314.8,172.6,313.2z M173.7,313.2
	c0,1.4,0.2,2.3,0.5,2.8s0.7,0.7,1.2,0.7s0.9-0.2,1.2-0.7s0.5-1.4,0.5-2.8s-0.2-2.4-0.5-2.8c-0.3-0.5-0.7-0.7-1.2-0.7
	s-0.9,0.2-1.2,0.6C173.8,310.8,173.7,311.8,173.7,313.2z M183.6,317.5h-1v-6.7c-0.3,0.2-0.6,0.5-1,0.7s-0.8,0.4-1.1,0.5v-1
	c0.6-0.3,1.1-0.6,1.5-1s0.8-0.8,1-1.2h0.7L183.6,317.5L183.6,317.5z M186.6,313.2c0-1,0.1-1.8,0.3-2.5c0.2-0.6,0.5-1.1,0.9-1.4
	s0.9-0.5,1.6-0.5c0.5,0,0.9,0.1,1.2,0.3c0.4,0.2,0.6,0.5,0.9,0.8c0.2,0.3,0.4,0.8,0.5,1.3s0.2,1.2,0.2,2c0,1-0.1,1.8-0.3,2.4
	s-0.5,1.1-0.9,1.4s-0.9,0.5-1.6,0.5c-0.8,0-1.5-0.3-2-0.9C186.9,316,186.6,314.8,186.6,313.2z M187.7,313.2c0,1.4,0.2,2.3,0.5,2.8
	s0.7,0.7,1.2,0.7s0.9-0.2,1.2-0.7s0.5-1.4,0.5-2.8s-0.2-2.4-0.5-2.8c-0.3-0.5-0.7-0.7-1.2-0.7s-0.9,0.2-1.2,0.6
	C187.8,310.8,187.7,311.8,187.7,313.2z"/>
<path d="M321.5,316.4v1h-5.7c0-0.2,0-0.5,0.1-0.7c0.1-0.4,0.4-0.8,0.7-1.1c0.3-0.4,0.8-0.8,1.4-1.3c0.9-0.8,1.6-1.4,1.9-1.8
	s0.5-0.9,0.5-1.3s-0.2-0.8-0.5-1c-0.3-0.3-0.7-0.4-1.2-0.4s-0.9,0.2-1.2,0.5s-0.5,0.7-0.5,1.3l-1.1-0.1c0.1-0.8,0.3-1.4,0.8-1.8
	s1.1-0.6,2-0.6s1.5,0.2,2,0.7s0.7,1,0.7,1.7c0,0.3-0.1,0.7-0.2,1s-0.4,0.7-0.7,1c-0.3,0.4-0.9,0.9-1.6,1.5c-0.6,0.5-1,0.9-1.2,1.1
	s-0.3,0.4-0.4,0.6h4.2V316.4z M323,313.2c0-1,0.1-1.8,0.3-2.5c0.2-0.6,0.5-1.1,0.9-1.4s0.9-0.5,1.6-0.5c0.5,0,0.9,0.1,1.2,0.3
	c0.4,0.2,0.6,0.5,0.9,0.8c0.2,0.3,0.4,0.8,0.5,1.3s0.2,1.2,0.2,2c0,1-0.1,1.8-0.3,2.4c-0.2,0.6-0.5,1.1-0.9,1.4s-0.9,0.5-1.6,0.5
	c-0.8,0-1.5-0.3-2-0.9C323.3,316,323,314.8,323,313.2z M324.1,313.2c0,1.4,0.2,2.3,0.5,2.8s0.7,0.7,1.2,0.7s0.9-0.2,1.2-0.7
	c0.3-0.5,0.5-1.4,0.5-2.8s-0.2-2.4-0.5-2.8c-0.3-0.5-0.7-0.7-1.2-0.7s-0.9,0.2-1.2,0.6C324.3,310.8,324.1,311.8,324.1,313.2z
	 M334,317.5h-1v-6.7c-0.3,0.2-0.6,0.5-1,0.7s-0.8,0.4-1.1,0.5v-1c0.6-0.3,1.1-0.6,1.5-1s0.8-0.8,1-1.2h0.7v8.7H334z M341,317.5h-1
	v-6.7c-0.3,0.2-0.6,0.5-1,0.7s-0.8,0.4-1.1,0.5v-1c0.6-0.3,1.1-0.6,1.5-1s0.8-0.8,1-1.2h0.7v8.7H341z"/>
<path d="M472,316.4v1h-5.7c0-0.2,0-0.5,0.1-0.7c0.1-0.4,0.4-0.8,0.7-1.1c0.3-0.4,0.8-0.8,1.4-1.3c0.9-0.8,1.6-1.4,1.9-1.8
	s0.5-0.9,0.5-1.3s-0.2-0.8-0.5-1c-0.3-0.3-0.7-0.4-1.2-0.4s-0.9,0.2-1.2,0.5c-0.3,0.3-0.5,0.7-0.5,1.3l-1.1-0.1
	c0.1-0.8,0.3-1.4,0.8-1.8s1.1-0.6,2-0.6c0.8,0,1.5,0.2,2,0.7s0.7,1,0.7,1.7c0,0.3-0.1,0.7-0.2,1s-0.4,0.7-0.7,1
	c-0.3,0.4-0.9,0.9-1.6,1.5c-0.6,0.5-1,0.9-1.2,1.1s-0.3,0.4-0.4,0.6h4.2V316.4z M473.4,313.2c0-1,0.1-1.8,0.3-2.5
	c0.2-0.6,0.5-1.1,0.9-1.4s0.9-0.5,1.6-0.5c0.5,0,0.9,0.1,1.2,0.3c0.4,0.2,0.6,0.5,0.9,0.8c0.2,0.3,0.4,0.8,0.5,1.3s0.2,1.2,0.2,2
	c0,1-0.1,1.8-0.3,2.4c-0.2,0.6-0.5,1.1-0.9,1.4s-0.9,0.5-1.6,0.5c-0.8,0-1.5-0.3-2-0.9C473.7,316,473.4,314.8,473.4,313.2z
	 M474.5,313.2c0,1.4,0.2,2.3,0.5,2.8s0.7,0.7,1.2,0.7s0.9-0.2,1.2-0.7c0.3-0.5,0.5-1.4,0.5-2.8s-0.2-2.4-0.5-2.8
	c-0.3-0.5-0.7-0.7-1.2-0.7s-0.9,0.2-1.2,0.6C474.7,310.8,474.5,311.8,474.5,313.2z M484.4,317.5h-1v-6.7c-0.3,0.2-0.6,0.5-1,0.7
	s-0.8,0.4-1.1,0.5v-1c0.6-0.3,1.1-0.6,1.5-1s0.8-0.8,1-1.2h0.7v8.7H484.4z M493,316.4v1h-5.7c0-0.2,0-0.5,0.1-0.7
	c0.1-0.4,0.4-0.8,0.7-1.1c0.3-0.4,0.8-0.8,1.4-1.3c0.9-0.8,1.6-1.4,1.9-1.8s0.5-0.9,0.5-1.3s-0.2-0.8-0.5-1
	c-0.3-0.3-0.7-0.4-1.2-0.4s-0.9,0.2-1.2,0.5c-0.3,0.3-0.5,0.7-0.5,1.3l-1.1-0.1c0.1-0.8,0.3-1.4,0.8-1.8s1.1-0.6,2-0.6
	c0.8,0,1.5,0.2,2,0.7s0.7,1,0.7,1.7c0,0.3-0.1,0.7-0.2,1s-0.4,0.7-0.7,1c-0.3,0.4-0.9,0.9-1.6,1.5c-0.6,0.5-1,0.9-1.2,1.1
	s-0.3,0.4-0.4,0.6h4.2V316.4z"/>
<path class="st27" d="M123,56.9c0-0.6,0.4-1,1-1h10c0.6,0,1,0.4,1,1v10c0,0.6-0.4,1-1,1h-10c-0.6,0-1-0.4-1-1V56.9z"/>
<path class="st28" d="M143,65.9l3.3-8.6h1.2l3.5,8.6h-1.3l-1-2.6h-3.6l-1,2.6H143z M145.5,62.4h2.9l-0.9-2.4
	c-0.3-0.7-0.5-1.3-0.6-1.8c-0.1,0.6-0.3,1.1-0.5,1.6L145.5,62.4z M150.8,65.9v-6.2h0.9v0.9c0.5-0.7,1.1-1,2-1c0.4,0,0.7,0.1,1,0.2
	c0.3,0.1,0.6,0.3,0.7,0.5c0.2,0.2,0.3,0.5,0.3,0.8c0,0.2,0,0.5,0,1v3.8h-1v-3.8c0-0.4,0-0.8-0.1-1s-0.2-0.4-0.4-0.5
	s-0.5-0.2-0.7-0.2c-0.4,0-0.8,0.1-1.2,0.4c-0.3,0.3-0.5,0.8-0.5,1.6v3.4L150.8,65.9L150.8,65.9z M157.8,68.3l-0.1-1
	c0.2,0.1,0.4,0.1,0.6,0.1c0.2,0,0.4,0,0.5-0.1s0.3-0.2,0.4-0.3c0.1-0.1,0.2-0.4,0.3-0.8c0-0.1,0-0.1,0.1-0.2l-2.4-6.2h1.1l1.3,3.6
	c0.2,0.5,0.3,0.9,0.5,1.5c0.1-0.5,0.3-1,0.4-1.4l1.3-3.6h1l-2.4,6.3c-0.3,0.7-0.5,1.1-0.6,1.4c-0.2,0.4-0.4,0.6-0.7,0.8
	c-0.2,0.2-0.5,0.2-0.9,0.2C158.2,68.4,158,68.4,157.8,68.3z M165.4,62.8c0-1.2,0.3-2,1-2.6c0.5-0.5,1.2-0.7,2-0.7
	c0.9,0,1.6,0.3,2.1,0.8c0.6,0.6,0.8,1.3,0.8,2.3c0,0.8-0.1,1.4-0.4,1.9c-0.2,0.5-0.6,0.8-1.1,1.1c-0.5,0.2-1,0.4-1.5,0.4
	c-0.9,0-1.6-0.3-2.1-0.8S165.4,63.9,165.4,62.8z M166.5,62.8c0,0.8,0.2,1.4,0.5,1.8c0.4,0.4,0.8,0.6,1.3,0.6s1-0.2,1.3-0.6
	s0.5-1,0.5-1.8s-0.2-1.4-0.5-1.8c-0.3-0.4-0.8-0.6-1.3-0.6s-1,0.2-1.3,0.6C166.7,61.4,166.5,62,166.5,62.8z M172.8,68.3v-8.6h1v0.8
	c0.2-0.3,0.5-0.5,0.8-0.7s0.6-0.2,1-0.2c0.5,0,1,0.1,1.4,0.4c0.4,0.3,0.7,0.7,0.9,1.2s0.3,1,0.3,1.6s-0.1,1.2-0.3,1.7
	s-0.5,0.9-1,1.2c-0.4,0.3-0.9,0.4-1.4,0.4c-0.4,0-0.7-0.1-1-0.2c-0.3-0.2-0.5-0.3-0.7-0.6v3H172.8z M173.8,62.8
	c0,0.8,0.2,1.4,0.5,1.8s0.7,0.6,1.2,0.6s0.9-0.2,1.2-0.6s0.5-1,0.5-1.8s-0.2-1.4-0.5-1.8c-0.3-0.4-0.7-0.6-1.2-0.6
	c-0.4,0-0.8,0.2-1.2,0.6C173.9,61.4,173.8,62,173.8,62.8z M179.8,58.5v-1.2h1.1v1.2H179.8z M179.8,65.9v-6.2h1.1v6.2H179.8z
	 M182.4,62.8c0-1.2,0.3-2,1-2.6c0.5-0.5,1.2-0.7,2-0.7c0.9,0,1.6,0.3,2.1,0.8c0.6,0.6,0.8,1.3,0.8,2.3c0,0.8-0.1,1.4-0.4,1.9
	c-0.2,0.5-0.6,0.8-1.1,1.1c-0.5,0.2-1,0.4-1.5,0.4c-0.9,0-1.6-0.3-2.1-0.8S182.4,63.9,182.4,62.8z M183.5,62.8
	c0,0.8,0.2,1.4,0.5,1.8c0.4,0.4,0.8,0.6,1.3,0.6s1-0.2,1.3-0.6s0.5-1,0.5-1.8s-0.2-1.4-0.5-1.8c-0.3-0.4-0.8-0.6-1.3-0.6
	s-1,0.2-1.3,0.6C183.7,61.4,183.5,62,183.5,62.8z M189.8,58.5v-1.2h1.1v1.2H189.8z M189.8,65.9v-6.2h1.1v6.2H189.8z M196.8,65.9
	v-0.8c-0.4,0.6-1,0.9-1.7,0.9c-0.5,0-1-0.1-1.4-0.4s-0.7-0.7-1-1.2c-0.2-0.5-0.3-1.1-0.3-1.7c0-0.6,0.1-1.2,0.3-1.7s0.5-0.9,0.9-1.2
	s0.9-0.4,1.4-0.4c0.4,0,0.7,0.1,1,0.2c0.3,0.2,0.5,0.4,0.7,0.6v-3.1h1v8.6h-0.9V65.9z M193.5,62.8c0,0.8,0.2,1.4,0.5,1.8
	s0.7,0.6,1.2,0.6s0.8-0.2,1.2-0.6s0.5-0.9,0.5-1.7c0-0.9-0.2-1.5-0.5-1.9s-0.7-0.6-1.2-0.6s-0.9,0.2-1.2,0.6
	C193.7,61.4,193.5,62,193.5,62.8z"/>
<path class="st29" d="M215,56.9c0-0.6,0.4-1,1-1h10c0.6,0,1,0.4,1,1v10c0,0.6-0.4,1-1,1h-10c-0.6,0-1-0.4-1-1V56.9z"/>
<path class="st28" d="M242.1,62.9l1.1,0.3c-0.2,0.9-0.7,1.6-1.3,2.1s-1.4,0.7-2.3,0.7c-0.9,0-1.7-0.2-2.3-0.6s-1-0.9-1.3-1.6
	c-0.3-0.7-0.5-1.5-0.5-2.3c0-0.9,0.2-1.7,0.5-2.3c0.3-0.7,0.8-1.2,1.5-1.5c0.6-0.3,1.3-0.5,2.1-0.5c0.9,0,1.6,0.2,2.2,0.7
	c0.6,0.4,1,1.1,1.2,1.8l-1.1,0.3c-0.2-0.6-0.5-1.1-0.9-1.4c-0.4-0.3-0.8-0.4-1.4-0.4c-0.7,0-1.2,0.2-1.7,0.5
	c-0.4,0.3-0.8,0.7-0.9,1.3c-0.2,0.5-0.3,1.1-0.3,1.7c0,0.7,0.1,1.4,0.3,1.9c0.2,0.5,0.6,0.9,1,1.2s0.9,0.4,1.5,0.4s1.2-0.2,1.6-0.5
	C241.6,64.2,241.9,63.6,242.1,62.9z M244.4,62.8c0-1.2,0.3-2,1-2.6c0.5-0.5,1.2-0.7,2-0.7c0.9,0,1.6,0.3,2.1,0.8
	c0.6,0.6,0.8,1.3,0.8,2.3c0,0.8-0.1,1.4-0.4,1.9c-0.2,0.5-0.6,0.8-1.1,1.1c-0.5,0.2-1,0.4-1.5,0.4c-0.9,0-1.6-0.3-2.1-0.8
	S244.4,63.9,244.4,62.8z M245.5,62.8c0,0.8,0.2,1.4,0.5,1.8c0.4,0.4,0.8,0.6,1.3,0.6s1-0.2,1.3-0.6s0.5-1,0.5-1.8s-0.2-1.4-0.5-1.8
	c-0.3-0.4-0.8-0.6-1.3-0.6s-1,0.2-1.3,0.6C245.7,61.4,245.5,62,245.5,62.8z M251.8,65.9v-6.2h0.9v0.9c0.2-0.3,0.5-0.6,0.8-0.7
	c0.3-0.2,0.7-0.3,1.1-0.3c0.5,0,0.8,0.1,1.1,0.3c0.3,0.2,0.5,0.5,0.6,0.8c0.5-0.7,1.1-1.1,1.9-1.1c0.6,0,1.1,0.2,1.4,0.5
	s0.5,0.9,0.5,1.6V66h-1v-4c0-0.4,0-0.7-0.1-0.9s-0.2-0.3-0.4-0.5c-0.2-0.1-0.4-0.2-0.6-0.2c-0.4,0-0.8,0.1-1.1,0.4
	c-0.3,0.3-0.4,0.8-0.4,1.4v3.6h-1.1v-4c0-0.5-0.1-0.8-0.3-1s-0.4-0.4-0.8-0.4c-0.3,0-0.6,0.1-0.8,0.2c-0.2,0.2-0.4,0.4-0.5,0.7
	s-0.2,0.7-0.2,1.3v3.2L251.8,65.9L251.8,65.9z M262.8,65.9v-6.2h0.9v0.9c0.2-0.3,0.5-0.6,0.8-0.7c0.3-0.2,0.7-0.3,1.1-0.3
	c0.5,0,0.8,0.1,1.1,0.3c0.3,0.2,0.5,0.5,0.6,0.8c0.5-0.7,1.1-1.1,1.9-1.1c0.6,0,1.1,0.2,1.4,0.5s0.5,0.9,0.5,1.6V66h-1v-4
	c0-0.4,0-0.7-0.1-0.9s-0.2-0.3-0.4-0.5c-0.2-0.1-0.4-0.2-0.6-0.2c-0.4,0-0.8,0.1-1.1,0.4c-0.3,0.3-0.4,0.8-0.4,1.4v3.6h-1.1v-4
	c0-0.5-0.1-0.8-0.3-1c-0.2-0.2-0.4-0.4-0.8-0.4c-0.3,0-0.6,0.1-0.8,0.2c-0.2,0.2-0.4,0.4-0.5,0.7s-0.2,0.7-0.2,1.3v3.2L262.8,65.9
	L262.8,65.9z M273.4,62.8c0-1.2,0.3-2,1-2.6c0.5-0.5,1.2-0.7,2-0.7c0.9,0,1.6,0.3,2.1,0.8c0.6,0.6,0.8,1.3,0.8,2.3
	c0,0.8-0.1,1.4-0.4,1.9c-0.2,0.5-0.6,0.8-1.1,1.1c-0.5,0.2-1,0.4-1.5,0.4c-0.9,0-1.6-0.3-2.1-0.8C273.7,64.7,273.4,63.9,273.4,62.8z
	 M274.5,62.8c0,0.8,0.2,1.4,0.5,1.8c0.4,0.4,0.8,0.6,1.3,0.6s1-0.2,1.3-0.6s0.5-1,0.5-1.8s-0.2-1.4-0.5-1.8
	c-0.3-0.4-0.8-0.6-1.3-0.6s-1,0.2-1.3,0.6C274.7,61.4,274.5,62,274.5,62.8z M280.8,65.9v-6.2h0.9v0.9c0.5-0.7,1.1-1,2-1
	c0.4,0,0.7,0.1,1,0.2c0.3,0.1,0.6,0.3,0.7,0.5c0.2,0.2,0.3,0.5,0.3,0.8c0,0.2,0,0.5,0,1v3.8h-1v-3.8c0-0.4,0-0.8-0.1-1
	s-0.2-0.4-0.4-0.5c-0.2-0.1-0.5-0.2-0.7-0.2c-0.4,0-0.8,0.1-1.2,0.4c-0.3,0.3-0.5,0.8-0.5,1.6v3.4L280.8,65.9L280.8,65.9z
	 M287.8,65.9v-8.6h1.1v8.6H287.8z M290.8,68.3l-0.1-1c0.2,0.1,0.4,0.1,0.6,0.1s0.4,0,0.5-0.1s0.3-0.2,0.4-0.3
	c0.1-0.1,0.2-0.4,0.3-0.8c0-0.1,0-0.1,0.1-0.2l-2.4-6.2h1.1l1.3,3.6c0.2,0.5,0.3,0.9,0.5,1.5c0.1-0.5,0.3-1,0.4-1.4l1.3-3.6h1
	l-2.4,6.3c-0.3,0.7-0.5,1.1-0.6,1.4c-0.2,0.4-0.4,0.6-0.7,0.8c-0.2,0.2-0.5,0.2-0.9,0.2C291.2,68.4,291,68.4,290.8,68.3z
	 M298.9,65.9v-8.6h3.2c0.6,0,1,0,1.3,0.1c0.4,0.1,0.8,0.2,1.1,0.4c0.3,0.2,0.5,0.5,0.7,0.8c0.2,0.4,0.3,0.7,0.3,1.2
	c0,0.7-0.2,1.3-0.7,1.9c-0.5,0.5-1.3,0.8-2.5,0.8h-2.2V66L298.9,65.9L298.9,65.9z M300.1,61.4h2.2c0.7,0,1.3-0.1,1.6-0.4
	c0.3-0.3,0.5-0.7,0.5-1.2c0-0.4-0.1-0.7-0.3-0.9c-0.2-0.3-0.4-0.4-0.7-0.5c-0.2-0.1-0.6-0.1-1.1-0.1h-2.2V61.4z M306.8,65.9v-6.2h1
	v0.9c0.2-0.4,0.5-0.7,0.7-0.9c0.2-0.1,0.4-0.2,0.7-0.2c0.4,0,0.7,0.1,1.1,0.3l-0.4,1c-0.3-0.2-0.5-0.2-0.8-0.2
	c-0.2,0-0.5,0.1-0.6,0.2c-0.2,0.1-0.3,0.3-0.4,0.6c-0.1,0.4-0.2,0.8-0.2,1.2v3.3H306.8z M315,63.9l1.1,0.1c-0.2,0.6-0.5,1.1-1,1.5
	S314,66,313.3,66c-0.9,0-1.6-0.3-2.2-0.8c-0.5-0.6-0.8-1.3-0.8-2.4c0-1,0.3-1.8,0.8-2.4c0.5-0.6,1.2-0.9,2.1-0.9
	c0.8,0,1.5,0.3,2,0.8c0.5,0.6,0.8,1.4,0.8,2.4c0,0.1,0,0.2,0,0.3h-4.6c0,0.7,0.2,1.2,0.6,1.6c0.3,0.4,0.8,0.5,1.3,0.5
	c0.4,0,0.7-0.1,1-0.3C314.7,64.7,314.9,64.4,315,63.9z M311.6,62.2h3.5c0-0.5-0.2-0.9-0.4-1.2c-0.3-0.4-0.8-0.6-1.3-0.6
	s-0.9,0.2-1.2,0.5C311.8,61.2,311.6,61.7,311.6,62.2z M317.4,64.1l1-0.2c0.1,0.4,0.2,0.7,0.5,1c0.3,0.2,0.7,0.3,1.1,0.3
	c0.5,0,0.8-0.1,1.1-0.3c0.2-0.2,0.4-0.4,0.4-0.7c0-0.2-0.1-0.4-0.3-0.6c-0.1-0.1-0.5-0.2-1.1-0.4c-0.8-0.2-1.3-0.4-1.6-0.5
	c-0.3-0.1-0.5-0.3-0.7-0.6c-0.2-0.2-0.2-0.5-0.2-0.8s0.1-0.5,0.2-0.8c0.1-0.2,0.3-0.4,0.5-0.6c0.2-0.1,0.4-0.2,0.7-0.3
	c0.3-0.1,0.6-0.1,0.9-0.1c0.5,0,0.9,0.1,1.3,0.2c0.4,0.1,0.7,0.3,0.8,0.6c0.2,0.2,0.3,0.6,0.4,1l-1,0.1c0-0.3-0.2-0.6-0.4-0.7
	c-0.2-0.2-0.5-0.3-1-0.3s-0.8,0.1-1,0.2c-0.2,0.2-0.3,0.3-0.3,0.6c0,0.1,0,0.3,0.1,0.4c0.1,0.1,0.2,0.2,0.4,0.3
	c0.1,0,0.4,0.1,0.9,0.3c0.8,0.2,1.3,0.4,1.6,0.5c0.3,0.1,0.5,0.3,0.7,0.5s0.2,0.5,0.2,0.9c0,0.4-0.1,0.7-0.3,1
	c-0.2,0.3-0.5,0.5-0.9,0.7s-0.8,0.2-1.3,0.2c-0.8,0-1.4-0.2-1.9-0.5C317.8,65.2,317.5,64.7,317.4,64.1z M328.9,63.6l1,0.1
	c-0.1,0.7-0.4,1.3-0.9,1.7s-1,0.6-1.7,0.6c-0.9,0-1.5-0.3-2.1-0.8c-0.5-0.6-0.8-1.4-0.8-2.4c0-0.7,0.1-1.2,0.3-1.8
	c0.2-0.5,0.6-0.9,1-1.1c0.5-0.2,1-0.4,1.5-0.4c0.7,0,1.2,0.2,1.6,0.5s0.7,0.8,0.8,1.5l-1,0.2c-0.1-0.4-0.3-0.7-0.5-0.9
	s-0.6-0.3-0.9-0.3c-0.5,0-1,0.2-1.3,0.6c-0.3,0.4-0.5,1-0.5,1.8s0.2,1.5,0.5,1.8s0.7,0.6,1.2,0.6c0.4,0,0.8-0.1,1-0.4
	C328.6,64.6,328.8,64.2,328.9,63.6z M330.8,65.9v-6.2h1v0.9c0.2-0.4,0.5-0.7,0.7-0.9c0.2-0.1,0.4-0.2,0.7-0.2c0.4,0,0.7,0.1,1.1,0.3
	l-0.4,1c-0.3-0.2-0.5-0.2-0.8-0.2c-0.2,0-0.5,0.1-0.6,0.2c-0.2,0.1-0.3,0.3-0.4,0.6c-0.1,0.4-0.2,0.8-0.2,1.2v3.3H330.8z
	 M334.8,58.5v-1.2h1.1v1.2H334.8z M334.8,65.9v-6.2h1.1v6.2H334.8z M338.8,65.9h-1v-8.6h1.1v3.1c0.4-0.6,1-0.8,1.7-0.8
	c0.4,0,0.7,0.1,1.1,0.2c0.3,0.1,0.6,0.4,0.8,0.6c0.2,0.3,0.4,0.6,0.5,1s0.2,0.8,0.2,1.3c0,1.1-0.3,1.9-0.8,2.5s-1.2,0.9-1.9,0.9
	c-0.7,0-1.3-0.3-1.7-0.9L338.8,65.9L338.8,65.9z M338.8,62.8c0,0.7,0.1,1.3,0.3,1.6c0.3,0.5,0.8,0.8,1.3,0.8s0.9-0.2,1.2-0.6
	c0.3-0.4,0.5-1,0.5-1.8s-0.2-1.4-0.5-1.8c-0.3-0.4-0.7-0.6-1.2-0.6s-0.9,0.2-1.2,0.6C338.9,61.4,338.8,62,338.8,62.8z M349,63.9
	l1.1,0.1c-0.2,0.6-0.5,1.1-1,1.5S348,66,347.3,66c-0.9,0-1.6-0.3-2.2-0.8c-0.5-0.6-0.8-1.3-0.8-2.4c0-1,0.3-1.8,0.8-2.4
	c0.5-0.6,1.2-0.9,2.1-0.9c0.8,0,1.5,0.3,2,0.8c0.5,0.6,0.8,1.4,0.8,2.4c0,0.1,0,0.2,0,0.3h-4.6c0,0.7,0.2,1.2,0.6,1.6
	c0.3,0.4,0.8,0.5,1.3,0.5c0.4,0,0.7-0.1,1-0.3C348.7,64.7,348.9,64.4,349,63.9z M345.6,62.2h3.5c0-0.5-0.2-0.9-0.4-1.2
	c-0.3-0.4-0.8-0.6-1.3-0.6s-0.9,0.2-1.2,0.5C345.8,61.2,345.6,61.7,345.6,62.2z M355.8,65.9v-0.8c-0.4,0.6-1,0.9-1.7,0.9
	c-0.5,0-1-0.1-1.4-0.4s-0.7-0.7-1-1.2c-0.2-0.5-0.3-1.1-0.3-1.7c0-0.6,0.1-1.2,0.3-1.7c0.2-0.5,0.5-0.9,0.9-1.2s0.9-0.4,1.4-0.4
	c0.4,0,0.7,0.1,1,0.2c0.3,0.2,0.5,0.4,0.7,0.6v-3.1h1v8.6h-0.9V65.9z M352.5,62.8c0,0.8,0.2,1.4,0.5,1.8s0.7,0.6,1.2,0.6
	s0.8-0.2,1.2-0.6s0.5-0.9,0.5-1.7c0-0.9-0.2-1.5-0.5-1.9s-0.7-0.6-1.2-0.6s-0.9,0.2-1.2,0.6C352.7,61.4,352.5,62,352.5,62.8z
	 M361.6,61.7c0-1.4,0.4-2.5,1.1-3.3c0.8-0.8,1.8-1.2,3-1.2c0.8,0,1.5,0.2,2.2,0.6c0.6,0.4,1.1,0.9,1.5,1.6c0.3,0.7,0.5,1.4,0.5,2.3
	c0,0.9-0.2,1.6-0.5,2.3c-0.4,0.7-0.9,1.2-1.5,1.6s-1.3,0.5-2.1,0.5c-0.8,0-1.5-0.2-2.2-0.6c-0.6-0.4-1.1-0.9-1.5-1.6
	C361.7,63.2,361.6,62.5,361.6,61.7z M362.8,61.7c0,1,0.3,1.9,0.8,2.5c0.6,0.6,1.3,0.9,2.1,0.9c0.9,0,1.6-0.3,2.1-0.9
	c0.6-0.6,0.8-1.5,0.8-2.6c0-0.7-0.1-1.3-0.4-1.8c-0.2-0.5-0.6-0.9-1-1.2c-0.5-0.3-1-0.4-1.5-0.4c-0.8,0-1.5,0.3-2.1,0.8
	C363,59.5,362.8,60.5,362.8,61.7z M370.8,68.3v-8.6h1v0.8c0.2-0.3,0.5-0.5,0.8-0.7s0.6-0.2,1-0.2c0.5,0,1,0.1,1.4,0.4
	c0.4,0.3,0.7,0.7,0.9,1.2c0.2,0.5,0.3,1,0.3,1.6s-0.1,1.2-0.3,1.7c-0.2,0.5-0.5,0.9-1,1.2c-0.4,0.3-0.9,0.4-1.4,0.4
	c-0.4,0-0.7-0.1-1-0.2c-0.3-0.2-0.5-0.3-0.7-0.6v3H370.8z M371.8,62.8c0,0.8,0.2,1.4,0.5,1.8s0.7,0.6,1.2,0.6s0.9-0.2,1.2-0.6
	c0.3-0.4,0.5-1,0.5-1.8s-0.2-1.4-0.5-1.8c-0.3-0.4-0.7-0.6-1.2-0.6c-0.4,0-0.8,0.2-1.2,0.6C371.9,61.4,371.8,62,371.8,62.8z
	 M377.8,58.5v-1.2h1.1v1.2H377.8z M377.8,65.9v-6.2h1.1v6.2H377.8z M380.4,62.8c0-1.2,0.3-2,1-2.6c0.5-0.5,1.2-0.7,2-0.7
	c0.9,0,1.6,0.3,2.1,0.8c0.6,0.6,0.8,1.3,0.8,2.3c0,0.8-0.1,1.4-0.4,1.9c-0.2,0.5-0.6,0.8-1.1,1.1c-0.5,0.2-1,0.4-1.5,0.4
	c-0.9,0-1.6-0.3-2.1-0.8C380.7,64.7,380.4,63.9,380.4,62.8z M381.5,62.8c0,0.8,0.2,1.4,0.5,1.8c0.4,0.4,0.8,0.6,1.3,0.6
	s1-0.2,1.3-0.6s0.5-1,0.5-1.8s-0.2-1.4-0.5-1.8c-0.3-0.4-0.8-0.6-1.3-0.6s-1,0.2-1.3,0.6C381.7,61.4,381.5,62,381.5,62.8z
	 M387.8,58.5v-1.2h1.1v1.2H387.8z M387.8,65.9v-6.2h1.1v6.2H387.8z M394.8,65.9v-0.8c-0.4,0.6-1,0.9-1.7,0.9c-0.5,0-1-0.1-1.4-0.4
	s-0.7-0.7-1-1.2c-0.2-0.5-0.3-1.1-0.3-1.7c0-0.6,0.1-1.2,0.3-1.7c0.2-0.5,0.5-0.9,0.9-1.2s0.9-0.4,1.4-0.4c0.4,0,0.7,0.1,1,0.2
	c0.3,0.2,0.5,0.4,0.7,0.6v-3.1h1v8.6h-0.9V65.9z M391.5,62.8c0,0.8,0.2,1.4,0.5,1.8s0.7,0.6,1.2,0.6s0.8-0.2,1.2-0.6
	s0.5-0.9,0.5-1.7c0-0.9-0.2-1.5-0.5-1.9s-0.7-0.6-1.2-0.6s-0.9,0.2-1.2,0.6C391.7,61.4,391.5,62,391.5,62.8z M397.4,64.1l1-0.2
	c0.1,0.4,0.2,0.7,0.5,1c0.3,0.2,0.7,0.3,1.1,0.3c0.5,0,0.8-0.1,1.1-0.3c0.2-0.2,0.4-0.4,0.4-0.7c0-0.2-0.1-0.4-0.3-0.6
	c-0.1-0.1-0.5-0.2-1.1-0.4c-0.8-0.2-1.3-0.4-1.6-0.5c-0.3-0.1-0.5-0.3-0.7-0.6c-0.2-0.2-0.2-0.5-0.2-0.8s0.1-0.5,0.2-0.8
	c0.1-0.2,0.3-0.4,0.5-0.6c0.2-0.1,0.4-0.2,0.7-0.3c0.3-0.1,0.6-0.1,0.9-0.1c0.5,0,0.9,0.1,1.3,0.2c0.4,0.1,0.7,0.3,0.8,0.6
	c0.2,0.2,0.3,0.6,0.4,1l-1,0.1c0-0.3-0.2-0.6-0.4-0.7c-0.2-0.2-0.5-0.3-1-0.3s-0.8,0.1-1,0.2c-0.2,0.2-0.3,0.3-0.3,0.6
	c0,0.1,0,0.3,0.1,0.4c0.1,0.1,0.2,0.2,0.4,0.3c0.1,0,0.4,0.1,0.9,0.3c0.8,0.2,1.3,0.4,1.6,0.5c0.3,0.1,0.5,0.3,0.7,0.5
	s0.2,0.5,0.2,0.9c0,0.4-0.1,0.7-0.3,1c-0.2,0.3-0.5,0.5-0.9,0.7s-0.8,0.2-1.3,0.2c-0.8,0-1.4-0.2-1.9-0.5
	C397.8,65.2,397.5,64.7,397.4,64.1z"/>
<path class="st30" d="M420,56.9c0-0.6,0.4-1,1-1h10c0.6,0,1,0.4,1,1v10c0,0.6-0.4,1-1,1h-10c-0.6,0-1-0.4-1-1V56.9z"/>
<path class="st28" d="M441,65.9v-8.6h1.1v3.5h4.5v-3.5h1.1v8.6h-1.1v-4h-4.5v4H441z M454,63.9l1.1,0.1c-0.2,0.6-0.5,1.1-1,1.5
	S453,66,452.3,66c-0.9,0-1.6-0.3-2.2-0.8c-0.5-0.6-0.8-1.3-0.8-2.4c0-1,0.3-1.8,0.8-2.4c0.5-0.6,1.2-0.9,2.1-0.9
	c0.8,0,1.5,0.3,2,0.8c0.5,0.6,0.8,1.4,0.8,2.4c0,0.1,0,0.2,0,0.3h-4.6c0,0.7,0.2,1.2,0.6,1.6c0.3,0.4,0.8,0.5,1.3,0.5
	c0.4,0,0.7-0.1,1-0.3C453.7,64.7,453.9,64.4,454,63.9z M450.6,62.2h3.5c0-0.5-0.2-0.9-0.4-1.2c-0.3-0.4-0.8-0.6-1.3-0.6
	s-0.9,0.2-1.2,0.5C450.8,61.2,450.6,61.7,450.6,62.2z M456.8,65.9v-6.2h1v0.9c0.2-0.4,0.5-0.7,0.7-0.9c0.2-0.1,0.4-0.2,0.7-0.2
	c0.4,0,0.7,0.1,1.1,0.3l-0.4,1c-0.3-0.2-0.5-0.2-0.8-0.2c-0.2,0-0.5,0.1-0.6,0.2c-0.2,0.1-0.3,0.3-0.4,0.6c-0.1,0.4-0.2,0.8-0.2,1.2
	v3.3H456.8z M460.4,62.8c0-1.2,0.3-2,1-2.6c0.5-0.5,1.2-0.7,2-0.7c0.9,0,1.6,0.3,2.1,0.8c0.6,0.6,0.8,1.3,0.8,2.3
	c0,0.8-0.1,1.4-0.4,1.9c-0.2,0.5-0.6,0.8-1.1,1.1c-0.5,0.2-1,0.4-1.5,0.4c-0.9,0-1.6-0.3-2.1-0.8C460.7,64.7,460.4,63.9,460.4,62.8z
	 M461.5,62.8c0,0.8,0.2,1.4,0.5,1.8c0.4,0.4,0.8,0.6,1.3,0.6s1-0.2,1.3-0.6s0.5-1,0.5-1.8s-0.2-1.4-0.5-1.8
	c-0.3-0.4-0.8-0.6-1.3-0.6s-1,0.2-1.3,0.6C461.7,61.4,461.5,62,461.5,62.8z M467.8,58.5v-1.2h1.1v1.2H467.8z M467.8,65.9v-6.2h1.1
	v6.2H467.8z M470.8,65.9v-6.2h0.9v0.9c0.5-0.7,1.1-1,2-1c0.4,0,0.7,0.1,1,0.2c0.3,0.1,0.6,0.3,0.7,0.5c0.2,0.2,0.3,0.5,0.3,0.8
	c0,0.2,0,0.5,0,1v3.8h-1v-3.8c0-0.4,0-0.8-0.1-1s-0.2-0.4-0.4-0.5c-0.2-0.1-0.5-0.2-0.7-0.2c-0.4,0-0.8,0.1-1.2,0.4
	c-0.3,0.3-0.5,0.8-0.5,1.6v3.4L470.8,65.9L470.8,65.9z"/>
<path class="st31" d="M154.5,74.9c0-0.6,0.4-1,1-1h10c0.6,0,1,0.4,1,1v10c0,0.6-0.4,1-1,1h-10c-0.6,0-1-0.4-1-1V74.9z"/>
<path class="st28" d="M175,81.2l1.1-0.1c0.1,0.4,0.2,0.8,0.4,1.1c0.2,0.3,0.5,0.5,0.9,0.7s0.8,0.2,1.3,0.2c0.4,0,0.8-0.1,1.1-0.2
	s0.6-0.3,0.7-0.5c0.2-0.2,0.2-0.5,0.2-0.7c0-0.3-0.1-0.5-0.2-0.7c-0.2-0.2-0.4-0.4-0.8-0.5c-0.2-0.1-0.8-0.2-1.5-0.4
	c-0.8-0.2-1.3-0.4-1.6-0.5c-0.4-0.2-0.7-0.5-0.9-0.8s-0.3-0.7-0.3-1.1s0.1-0.8,0.4-1.2c0.2-0.4,0.6-0.7,1.1-0.9
	c0.5-0.2,1-0.3,1.6-0.3s1.2,0.1,1.7,0.3c0.5,0.2,0.9,0.5,1.1,0.9c0.3,0.4,0.4,0.8,0.4,1.3l-1.1,0.1c-0.1-0.5-0.3-0.9-0.6-1.2
	c-0.3-0.3-0.8-0.4-1.5-0.4s-1.2,0.1-1.5,0.4s-0.5,0.6-0.5,0.9s0.1,0.6,0.3,0.8c0.2,0.2,0.8,0.4,1.7,0.6s1.6,0.4,1.9,0.5
	c0.5,0.2,0.9,0.5,1.1,0.9c0.2,0.3,0.4,0.8,0.4,1.2c0,0.5-0.1,0.9-0.4,1.3c-0.3,0.4-0.6,0.7-1.1,0.9c-0.5,0.2-1,0.3-1.7,0.3
	c-0.8,0-1.4-0.1-2-0.3c-0.5-0.2-0.9-0.6-1.2-1C175.2,82.2,175.1,81.7,175,81.2z M183.2,86.3l-0.1-1c0.2,0.1,0.4,0.1,0.6,0.1
	c0.2,0,0.4,0,0.5-0.1s0.3-0.2,0.4-0.3c0.1-0.1,0.2-0.4,0.3-0.8c0-0.1,0-0.1,0.1-0.2l-2.4-6.2h1.1l1.3,3.6c0.2,0.5,0.3,0.9,0.5,1.5
	c0.1-0.5,0.3-1,0.4-1.4l1.3-3.6h1L186,84c-0.3,0.7-0.5,1.1-0.6,1.4c-0.2,0.4-0.4,0.6-0.7,0.8c-0.2,0.2-0.5,0.2-0.9,0.2
	C183.7,86.4,183.5,86.4,183.2,86.3z M188.3,83.9v-6.2h0.9v0.9c0.5-0.7,1.1-1,2-1c0.4,0,0.7,0.1,1,0.2s0.6,0.3,0.7,0.5
	s0.3,0.5,0.3,0.8c0,0.2,0,0.5,0,1v3.8h-1v-3.8c0-0.4,0-0.8-0.1-1s-0.2-0.4-0.4-0.5s-0.5-0.2-0.7-0.2c-0.4,0-0.8,0.1-1.2,0.4
	c-0.3,0.3-0.5,0.8-0.5,1.6v3.4L188.3,83.9L188.3,83.9z M197.6,83l0.2,0.9c-0.3,0.1-0.6,0.1-0.8,0.1c-0.4,0-0.7-0.1-0.9-0.2
	s-0.4-0.3-0.5-0.5s-0.1-0.6-0.1-1.2v-3.6h-0.8v-0.8h0.8v-1.5l1-0.6v2.2h1.1v0.8h-1.1v3.6c0,0.3,0,0.5,0,0.6s0.1,0.2,0.2,0.2
	c0.1,0.1,0.2,0.1,0.4,0.1C197.2,83,197.4,83,197.6,83z M198.3,83.9v-8.6h1v3.1c0.5-0.6,1.1-0.8,1.9-0.8c0.5,0,0.9,0.1,1.2,0.3
	c0.3,0.2,0.6,0.4,0.7,0.8c0.1,0.3,0.2,0.8,0.2,1.4V84h-1v-4c0-0.5-0.1-0.9-0.3-1.2c-0.2-0.2-0.6-0.4-1-0.4c-0.3,0-0.6,0.1-0.9,0.2
	c-0.3,0.2-0.5,0.4-0.6,0.7c-0.1,0.3-0.2,0.7-0.2,1.1v3.4h-1V83.9z M209.5,81.9l1.1,0.1c-0.2,0.6-0.5,1.1-1,1.5s-1.1,0.5-1.8,0.5
	c-0.9,0-1.6-0.3-2.2-0.8c-0.5-0.6-0.8-1.3-0.8-2.4c0-1,0.3-1.8,0.8-2.4s1.2-0.9,2.1-0.9c0.8,0,1.5,0.3,2,0.8
	c0.5,0.6,0.8,1.4,0.8,2.4c0,0.1,0,0.2,0,0.3H206c0,0.7,0.2,1.2,0.6,1.6c0.3,0.4,0.8,0.5,1.3,0.5c0.4,0,0.7-0.1,1-0.3
	C209.2,82.7,209.4,82.4,209.5,81.9z M206.1,80.2h3.5c0-0.5-0.2-0.9-0.4-1.2c-0.3-0.4-0.8-0.6-1.3-0.6s-0.9,0.2-1.2,0.5
	C206.3,79.2,206.1,79.7,206.1,80.2z M214.6,83l0.2,0.9c-0.3,0.1-0.6,0.1-0.8,0.1c-0.4,0-0.7-0.1-0.9-0.2s-0.4-0.3-0.5-0.5
	s-0.1-0.6-0.1-1.2v-3.6h-0.8v-0.8h0.8v-1.5l1-0.6v2.2h1.1v0.8h-1.1v3.6c0,0.3,0,0.5,0,0.6s0.1,0.2,0.2,0.2c0.1,0.1,0.2,0.1,0.4,0.1
	C214.2,83,214.4,83,214.6,83z M215.3,76.5v-1.2h1.1v1.2H215.3z M215.3,83.9v-6.2h1.1v6.2H215.3z M222.4,81.6l1,0.1
	c-0.1,0.7-0.4,1.3-0.9,1.7s-1,0.6-1.7,0.6c-0.9,0-1.5-0.3-2.1-0.8c-0.5-0.6-0.8-1.4-0.8-2.4c0-0.7,0.1-1.2,0.3-1.8
	c0.2-0.5,0.6-0.9,1-1.1c0.5-0.2,1-0.4,1.5-0.4c0.7,0,1.2,0.2,1.6,0.5c0.4,0.3,0.7,0.8,0.8,1.5l-1,0.2c-0.1-0.4-0.3-0.7-0.5-0.9
	c-0.2-0.2-0.6-0.3-0.9-0.3c-0.5,0-1,0.2-1.3,0.6s-0.5,1-0.5,1.8s0.2,1.5,0.5,1.8s0.7,0.6,1.2,0.6c0.4,0,0.8-0.1,1-0.4
	C222.1,82.6,222.3,82.2,222.4,81.6z M226.9,80.8c0-1.2,0.3-2,1-2.6c0.5-0.5,1.2-0.7,2-0.7c0.9,0,1.6,0.3,2.1,0.8
	c0.6,0.6,0.8,1.3,0.8,2.3c0,0.8-0.1,1.4-0.4,1.9c-0.2,0.5-0.6,0.8-1.1,1.1c-0.5,0.2-1,0.4-1.5,0.4c-0.9,0-1.6-0.3-2.1-0.8
	C227.2,82.7,226.9,81.9,226.9,80.8z M228,80.8c0,0.8,0.2,1.4,0.5,1.8c0.4,0.4,0.8,0.6,1.3,0.6s1-0.2,1.3-0.6s0.5-1,0.5-1.8
	s-0.2-1.4-0.5-1.8s-0.8-0.6-1.3-0.6s-1,0.2-1.3,0.6S228,80,228,80.8z M234.3,86.3v-8.6h1v0.8c0.2-0.3,0.5-0.5,0.8-0.7s0.6-0.2,1-0.2
	c0.5,0,1,0.1,1.4,0.4s0.7,0.7,0.9,1.2s0.3,1,0.3,1.6s-0.1,1.2-0.3,1.7s-0.5,0.9-1,1.2c-0.4,0.3-0.9,0.4-1.4,0.4
	c-0.4,0-0.7-0.1-1-0.2c-0.3-0.2-0.5-0.3-0.7-0.6v3C235.3,86.3,234.3,86.3,234.3,86.3z M235.2,80.8c0,0.8,0.2,1.4,0.5,1.8
	s0.7,0.6,1.2,0.6s0.9-0.2,1.2-0.6s0.5-1,0.5-1.8s-0.2-1.4-0.5-1.8s-0.7-0.6-1.2-0.6c-0.4,0-0.8,0.2-1.2,0.6
	C235.4,79.4,235.2,80,235.2,80.8z M241.3,76.5v-1.2h1.1v1.2H241.3z M241.3,83.9v-6.2h1.1v6.2H241.3z M243.9,80.8c0-1.2,0.3-2,1-2.6
	c0.5-0.5,1.2-0.7,2-0.7c0.9,0,1.6,0.3,2.1,0.8c0.6,0.6,0.8,1.3,0.8,2.3c0,0.8-0.1,1.4-0.4,1.9c-0.2,0.5-0.6,0.8-1.1,1.1
	c-0.5,0.2-1,0.4-1.5,0.4c-0.9,0-1.6-0.3-2.1-0.8C244.2,82.7,243.9,81.9,243.9,80.8z M245,80.8c0,0.8,0.2,1.4,0.5,1.8
	c0.4,0.4,0.8,0.6,1.3,0.6s1-0.2,1.3-0.6s0.5-1,0.5-1.8s-0.2-1.4-0.5-1.8s-0.8-0.6-1.3-0.6s-1,0.2-1.3,0.6S245,80,245,80.8z
	 M251.3,76.5v-1.2h1.1v1.2H251.3z M251.3,83.9v-6.2h1.1v6.2H251.3z M258.3,83.9v-0.8c-0.4,0.6-1,0.9-1.7,0.9c-0.5,0-1-0.1-1.4-0.4
	s-0.7-0.7-1-1.2c-0.2-0.5-0.3-1.1-0.3-1.7s0.1-1.2,0.3-1.7s0.5-0.9,0.9-1.2c0.4-0.3,0.9-0.4,1.4-0.4c0.4,0,0.7,0.1,1,0.2
	s0.5,0.4,0.7,0.6v-3.1h1v8.6h-0.9V83.9z M255,80.8c0,0.8,0.2,1.4,0.5,1.8s0.7,0.6,1.2,0.6s0.8-0.2,1.2-0.6s0.5-0.9,0.5-1.7
	c0-0.9-0.2-1.5-0.5-1.9s-0.7-0.6-1.2-0.6s-0.9,0.2-1.2,0.6C255.2,79.4,255,80,255,80.8z M268.4,83.2c-0.4,0.3-0.8,0.6-1.1,0.7
	c-0.4,0.1-0.7,0.2-1.2,0.2c-0.7,0-1.2-0.2-1.6-0.5s-0.5-0.8-0.5-1.3c0-0.3,0.1-0.6,0.2-0.8c0.1-0.3,0.3-0.5,0.5-0.6
	c0.2-0.2,0.5-0.3,0.8-0.3c0.2-0.1,0.5-0.1,0.9-0.2c0.8-0.1,1.5-0.2,1.9-0.4c0-0.1,0-0.2,0-0.3c0-0.4-0.1-0.7-0.3-0.9
	c-0.3-0.2-0.7-0.3-1.2-0.3s-0.9,0.1-1.1,0.3c-0.2,0.2-0.4,0.5-0.5,0.9l-1-0.1c0.1-0.4,0.2-0.8,0.5-1.1c0.2-0.3,0.5-0.5,0.9-0.6
	s0.9-0.2,1.4-0.2s1,0.1,1.3,0.2s0.6,0.3,0.7,0.5s0.3,0.4,0.3,0.7c0,0.2,0,0.5,0,1v1.4c0,1,0,1.6,0.1,1.9s0.1,0.5,0.3,0.8h-1.1
	C268.5,83.7,268.4,83.4,268.4,83.2z M268.3,80.8c-0.4,0.2-1,0.3-1.7,0.4c-0.4,0.1-0.7,0.1-0.9,0.2c-0.2,0.1-0.3,0.2-0.4,0.3
	c-0.1,0.1-0.1,0.3-0.1,0.5c0,0.3,0.1,0.5,0.3,0.7c0.2,0.2,0.5,0.3,0.9,0.3s0.8-0.1,1.1-0.3c0.3-0.2,0.6-0.4,0.7-0.7
	c0.1-0.2,0.2-0.6,0.2-1v-0.4H268.3z M271.3,83.9v-6.2h0.9v0.9c0.5-0.7,1.1-1,2-1c0.4,0,0.7,0.1,1,0.2s0.6,0.3,0.7,0.5
	s0.3,0.5,0.3,0.8c0,0.2,0,0.5,0,1v3.8h-1v-3.8c0-0.4,0-0.8-0.1-1s-0.2-0.4-0.4-0.5c-0.2-0.1-0.5-0.2-0.7-0.2c-0.4,0-0.8,0.1-1.2,0.4
	c-0.3,0.3-0.5,0.8-0.5,1.6v3.4L271.3,83.9L271.3,83.9z M282.4,83.2c-0.4,0.3-0.8,0.6-1.1,0.7c-0.4,0.1-0.7,0.2-1.2,0.2
	c-0.7,0-1.2-0.2-1.6-0.5s-0.5-0.8-0.5-1.3c0-0.3,0.1-0.6,0.2-0.8c0.1-0.3,0.3-0.5,0.5-0.6c0.2-0.2,0.5-0.3,0.8-0.3
	c0.2-0.1,0.5-0.1,0.9-0.2c0.8-0.1,1.5-0.2,1.9-0.4c0-0.1,0-0.2,0-0.3c0-0.4-0.1-0.7-0.3-0.9c-0.3-0.2-0.7-0.3-1.2-0.3
	s-0.9,0.1-1.1,0.3c-0.2,0.2-0.4,0.5-0.5,0.9l-1-0.1c0.1-0.4,0.2-0.8,0.5-1.1c0.2-0.3,0.5-0.5,0.9-0.6s0.9-0.2,1.4-0.2s1,0.1,1.3,0.2
	s0.6,0.3,0.7,0.5s0.3,0.4,0.3,0.7c0,0.2,0,0.5,0,1v1.4c0,1,0,1.6,0.1,1.9s0.1,0.5,0.3,0.8h-1.1C282.5,83.7,282.4,83.4,282.4,83.2z
	 M282.3,80.8c-0.4,0.2-1,0.3-1.7,0.4c-0.4,0.1-0.7,0.1-0.9,0.2c-0.2,0.1-0.3,0.2-0.4,0.3c-0.1,0.1-0.1,0.3-0.1,0.5
	c0,0.3,0.1,0.5,0.3,0.7c0.2,0.2,0.5,0.3,0.9,0.3s0.8-0.1,1.1-0.3c0.3-0.2,0.6-0.4,0.7-0.7c0.1-0.2,0.2-0.6,0.2-1v-0.4H282.3z
	 M285.3,83.9v-8.6h1.1v8.6H285.3z M288.1,84.4l1,0.2c0,0.3,0.2,0.5,0.4,0.7c0.3,0.2,0.6,0.3,1.1,0.3s0.9-0.1,1.1-0.3
	c0.3-0.2,0.5-0.5,0.5-0.8c0.1-0.2,0.1-0.7,0.1-1.4c-0.5,0.5-1,0.8-1.7,0.8c-0.9,0-1.5-0.3-2-0.9s-0.7-1.4-0.7-2.2
	c0-0.6,0.1-1.1,0.3-1.6c0.2-0.5,0.5-0.9,0.9-1.2c0.4-0.3,0.9-0.4,1.4-0.4c0.7,0,1.3,0.3,1.8,0.9v-0.8h1v5.4c0,1-0.1,1.7-0.3,2.1
	s-0.5,0.7-0.9,1c-0.4,0.2-1,0.4-1.6,0.4c-0.7,0-1.3-0.2-1.8-0.5C288.3,85.6,288.1,85.1,288.1,84.4z M289,80.7c0,0.8,0.2,1.4,0.5,1.8
	s0.7,0.6,1.2,0.6s0.9-0.2,1.2-0.6c0.3-0.4,0.5-1,0.5-1.8s-0.2-1.3-0.5-1.7c-0.3-0.4-0.7-0.6-1.2-0.6s-0.9,0.2-1.2,0.6
	C289.1,79.4,289,79.9,289,80.7z M299.5,81.9l1.1,0.1c-0.2,0.6-0.5,1.1-1,1.5s-1.1,0.5-1.8,0.5c-0.9,0-1.6-0.3-2.2-0.8
	c-0.5-0.6-0.8-1.3-0.8-2.4c0-1,0.3-1.8,0.8-2.4s1.2-0.9,2.1-0.9c0.8,0,1.5,0.3,2,0.8c0.5,0.6,0.8,1.4,0.8,2.4c0,0.1,0,0.2,0,0.3H296
	c0,0.7,0.2,1.2,0.6,1.6c0.3,0.4,0.8,0.5,1.3,0.5c0.4,0,0.7-0.1,1-0.3C299.2,82.7,299.4,82.4,299.5,81.9z M296.1,80.2h3.5
	c0-0.5-0.2-0.9-0.4-1.2c-0.3-0.4-0.8-0.6-1.3-0.6s-0.9,0.2-1.2,0.5C296.3,79.2,296.1,79.7,296.1,80.2z M301.9,82.1l1-0.2
	c0.1,0.4,0.2,0.7,0.5,1c0.3,0.2,0.7,0.3,1.1,0.3c0.5,0,0.8-0.1,1.1-0.3c0.2-0.2,0.4-0.4,0.4-0.7c0-0.2-0.1-0.4-0.3-0.6
	c-0.1-0.1-0.5-0.2-1.1-0.4c-0.8-0.2-1.3-0.4-1.6-0.5c-0.3-0.1-0.5-0.3-0.7-0.6s-0.2-0.5-0.2-0.8s0.1-0.5,0.2-0.8
	c0.1-0.2,0.3-0.4,0.5-0.6c0.2-0.1,0.4-0.2,0.7-0.3c0.3-0.1,0.6-0.1,0.9-0.1c0.5,0,0.9,0.1,1.3,0.2s0.7,0.3,0.8,0.6
	c0.2,0.2,0.3,0.6,0.4,1l-1,0.1c0-0.3-0.2-0.6-0.4-0.7c-0.2-0.2-0.5-0.3-1-0.3s-0.8,0.1-1,0.2c-0.2,0.2-0.3,0.3-0.3,0.6
	c0,0.1,0,0.3,0.1,0.4s0.2,0.2,0.4,0.3c0.1,0,0.4,0.1,0.9,0.3c0.8,0.2,1.3,0.4,1.6,0.5s0.5,0.3,0.7,0.5s0.2,0.5,0.2,0.9
	s-0.1,0.7-0.3,1c-0.2,0.3-0.5,0.5-0.9,0.7s-0.8,0.2-1.3,0.2c-0.8,0-1.4-0.2-1.9-0.5C302.3,83.2,302,82.7,301.9,82.1z M309.3,76.5
	v-1.2h1.1v1.2H309.3z M309.3,83.9v-6.2h1.1v6.2H309.3z M316.4,81.6l1,0.1c-0.1,0.7-0.4,1.3-0.9,1.7s-1,0.6-1.7,0.6
	c-0.9,0-1.5-0.3-2.1-0.8c-0.5-0.6-0.8-1.4-0.8-2.4c0-0.7,0.1-1.2,0.3-1.8c0.2-0.5,0.6-0.9,1-1.1c0.5-0.2,1-0.4,1.5-0.4
	c0.7,0,1.2,0.2,1.6,0.5s0.7,0.8,0.8,1.5l-1,0.2c-0.1-0.4-0.3-0.7-0.5-0.9c-0.2-0.2-0.6-0.3-0.9-0.3c-0.5,0-1,0.2-1.3,0.6
	s-0.5,1-0.5,1.8s0.2,1.5,0.5,1.8s0.7,0.6,1.2,0.6c0.4,0,0.8-0.1,1-0.4C316.1,82.6,316.3,82.2,316.4,81.6z M317.9,82.1l1-0.2
	c0.1,0.4,0.2,0.7,0.5,1c0.3,0.2,0.7,0.3,1.1,0.3c0.5,0,0.8-0.1,1.1-0.3c0.2-0.2,0.4-0.4,0.4-0.7c0-0.2-0.1-0.4-0.3-0.6
	c-0.1-0.1-0.5-0.2-1.1-0.4c-0.8-0.2-1.3-0.4-1.6-0.5c-0.3-0.1-0.5-0.3-0.7-0.6s-0.2-0.5-0.2-0.8s0.1-0.5,0.2-0.8
	c0.1-0.2,0.3-0.4,0.5-0.6c0.2-0.1,0.4-0.2,0.7-0.3c0.3-0.1,0.6-0.1,0.9-0.1c0.5,0,0.9,0.1,1.3,0.2s0.7,0.3,0.8,0.6
	c0.2,0.2,0.3,0.6,0.4,1l-1,0.1c0-0.3-0.2-0.6-0.4-0.7c-0.2-0.2-0.5-0.3-1-0.3s-0.8,0.1-1,0.2c-0.2,0.2-0.3,0.3-0.3,0.6
	c0,0.1,0,0.3,0.1,0.4s0.2,0.2,0.4,0.3c0.1,0,0.4,0.1,0.9,0.3c0.8,0.2,1.3,0.4,1.6,0.5s0.5,0.3,0.7,0.5s0.2,0.5,0.2,0.9
	s-0.1,0.7-0.3,1c-0.2,0.3-0.5,0.5-0.9,0.7s-0.8,0.2-1.3,0.2c-0.8,0-1.4-0.2-1.9-0.5C318.3,83.2,318,82.7,317.9,82.1z M332.5,81.9
	l1.1,0.1c-0.2,0.6-0.5,1.1-1,1.5s-1.1,0.5-1.8,0.5c-0.9,0-1.6-0.3-2.2-0.8c-0.5-0.6-0.8-1.3-0.8-2.4c0-1,0.3-1.8,0.8-2.4
	s1.2-0.9,2.1-0.9c0.8,0,1.5,0.3,2,0.8c0.5,0.6,0.8,1.4,0.8,2.4c0,0.1,0,0.2,0,0.3H329c0,0.7,0.2,1.2,0.6,1.6
	c0.3,0.4,0.8,0.5,1.3,0.5c0.4,0,0.7-0.1,1-0.3C332.2,82.7,332.4,82.4,332.5,81.9z M329.1,80.2h3.5c0-0.5-0.2-0.9-0.4-1.2
	c-0.3-0.4-0.8-0.6-1.3-0.6s-0.9,0.2-1.2,0.5C329.3,79.2,329.1,79.7,329.1,80.2z M334.6,83.9l2.3-3.2l-2.1-3h1.3l1,1.5
	c0.2,0.3,0.3,0.5,0.4,0.7c0.2-0.3,0.3-0.5,0.5-0.7l1-1.5h1.3l-2.2,2.9l2.3,3.3h-1.3l-1.3-1.9l-0.3-0.5l-1.6,2.5h-1.3V83.9z
	 M344.4,81.6l1,0.1c-0.1,0.7-0.4,1.3-0.9,1.7s-1,0.6-1.7,0.6c-0.9,0-1.5-0.3-2.1-0.8c-0.5-0.6-0.8-1.4-0.8-2.4
	c0-0.7,0.1-1.2,0.3-1.8c0.2-0.5,0.6-0.9,1-1.1c0.5-0.2,1-0.4,1.5-0.4c0.7,0,1.2,0.2,1.6,0.5s0.7,0.8,0.8,1.5l-1,0.2
	c-0.1-0.4-0.3-0.7-0.5-0.9c-0.2-0.2-0.6-0.3-0.9-0.3c-0.5,0-1,0.2-1.3,0.6s-0.5,1-0.5,1.8s0.2,1.5,0.5,1.8s0.7,0.6,1.2,0.6
	c0.4,0,0.8-0.1,1-0.4C344.1,82.6,344.3,82.2,344.4,81.6z M346.3,83.9v-8.6h1.1v8.6H346.3z M353.4,83.9V83c-0.5,0.7-1.2,1.1-2,1.1
	c-0.4,0-0.7-0.1-1-0.2s-0.5-0.3-0.7-0.5s-0.3-0.5-0.3-0.8c0-0.2-0.1-0.5-0.1-1v-3.8h1.1v3.5c0,0.5,0,0.9,0.1,1.1
	c0.1,0.3,0.2,0.5,0.4,0.7c0.2,0.2,0.5,0.2,0.8,0.2s0.6-0.1,0.9-0.2c0.3-0.2,0.5-0.4,0.6-0.7c0.1-0.3,0.2-0.7,0.2-1.2v-3.3h1v6.2h-1
	V83.9z M360.3,83.9v-0.8c-0.4,0.6-1,0.9-1.7,0.9c-0.5,0-1-0.1-1.4-0.4s-0.7-0.7-1-1.2c-0.2-0.5-0.3-1.1-0.3-1.7s0.1-1.2,0.3-1.7
	c0.2-0.5,0.5-0.9,0.9-1.2c0.4-0.3,0.9-0.4,1.4-0.4c0.4,0,0.7,0.1,1,0.2s0.5,0.4,0.7,0.6v-3.1h1v8.6h-0.9V83.9z M357,80.8
	c0,0.8,0.2,1.4,0.5,1.8s0.7,0.6,1.2,0.6s0.8-0.2,1.2-0.6s0.5-0.9,0.5-1.7c0-0.9-0.2-1.5-0.5-1.9s-0.7-0.6-1.2-0.6s-0.9,0.2-1.2,0.6
	C357.2,79.4,357,80,357,80.8z M363.3,76.5v-1.2h1.1v1.2H363.3z M363.3,83.9v-6.2h1.1v6.2H363.3z M366.3,83.9v-6.2h0.9v0.9
	c0.5-0.7,1.1-1,2-1c0.4,0,0.7,0.1,1,0.2s0.6,0.3,0.7,0.5s0.3,0.5,0.3,0.8c0,0.2,0,0.5,0,1v3.8h-1v-3.8c0-0.4,0-0.8-0.1-1
	s-0.2-0.4-0.4-0.5c-0.2-0.1-0.5-0.2-0.7-0.2c-0.4,0-0.8,0.1-1.2,0.4c-0.3,0.3-0.5,0.8-0.5,1.6v3.4L366.3,83.9L366.3,83.9z
	 M373.1,84.4l1,0.2c0,0.3,0.2,0.5,0.4,0.7c0.3,0.2,0.6,0.3,1.1,0.3s0.9-0.1,1.1-0.3c0.3-0.2,0.5-0.5,0.5-0.8
	c0.1-0.2,0.1-0.7,0.1-1.4c-0.5,0.5-1,0.8-1.7,0.8c-0.9,0-1.5-0.3-2-0.9s-0.7-1.4-0.7-2.2c0-0.6,0.1-1.1,0.3-1.6
	c0.2-0.5,0.5-0.9,0.9-1.2c0.4-0.3,0.9-0.4,1.4-0.4c0.7,0,1.3,0.3,1.8,0.9v-0.8h1v5.4c0,1-0.1,1.7-0.3,2.1s-0.5,0.7-0.9,1
	c-0.4,0.2-1,0.4-1.6,0.4c-0.7,0-1.3-0.2-1.8-0.5C373.3,85.6,373.1,85.1,373.1,84.4z M374,80.7c0,0.8,0.2,1.4,0.5,1.8
	s0.7,0.6,1.2,0.6s0.9-0.2,1.2-0.6c0.3-0.4,0.5-1,0.5-1.8s-0.2-1.3-0.5-1.7c-0.3-0.4-0.7-0.6-1.2-0.6s-0.9,0.2-1.2,0.6
	C374.1,79.4,374,79.9,374,80.7z M383.3,83.9v-6.2h0.9v0.9c0.2-0.3,0.5-0.6,0.8-0.7c0.3-0.2,0.7-0.3,1.1-0.3c0.5,0,0.8,0.1,1.1,0.3
	c0.3,0.2,0.5,0.5,0.6,0.8c0.5-0.7,1.1-1.1,1.9-1.1c0.6,0,1.1,0.2,1.4,0.5s0.5,0.9,0.5,1.6V84h-1v-4c0-0.4,0-0.7-0.1-0.9
	c-0.1-0.2-0.2-0.3-0.4-0.5c-0.2-0.1-0.4-0.2-0.6-0.2c-0.4,0-0.8,0.1-1.1,0.4c-0.3,0.3-0.4,0.8-0.4,1.4v3.6h-1v-4
	c0-0.5-0.1-0.8-0.3-1c-0.2-0.2-0.4-0.4-0.8-0.4c-0.3,0-0.6,0.1-0.8,0.2s-0.4,0.4-0.5,0.7c-0.1,0.3-0.2,0.7-0.2,1.3v3.2h-1.1V83.9z
	 M398.5,81.9l1.1,0.1c-0.2,0.6-0.5,1.1-1,1.5s-1.1,0.5-1.8,0.5c-0.9,0-1.6-0.3-2.2-0.8c-0.5-0.6-0.8-1.3-0.8-2.4
	c0-1,0.3-1.8,0.8-2.4s1.2-0.9,2.1-0.9c0.8,0,1.5,0.3,2,0.8c0.5,0.6,0.8,1.4,0.8,2.4c0,0.1,0,0.2,0,0.3H395c0,0.7,0.2,1.2,0.6,1.6
	c0.3,0.4,0.8,0.5,1.3,0.5c0.4,0,0.7-0.1,1-0.3C398.2,82.7,398.4,82.4,398.5,81.9z M395.1,80.2h3.5c0-0.5-0.2-0.9-0.4-1.2
	c-0.3-0.4-0.8-0.6-1.3-0.6s-0.9,0.2-1.2,0.5C395.3,79.2,395.1,79.7,395.1,80.2z M403.6,83l0.2,0.9c-0.3,0.1-0.6,0.1-0.8,0.1
	c-0.4,0-0.7-0.1-0.9-0.2c-0.2-0.1-0.4-0.3-0.5-0.5s-0.1-0.6-0.1-1.2v-3.6h-0.8v-0.8h0.8v-1.5l1-0.6v2.2h1.1v0.8h-1.1v3.6
	c0,0.3,0,0.5,0,0.6s0.1,0.2,0.2,0.2c0.1,0.1,0.2,0.1,0.4,0.1C403.2,83,403.4,83,403.6,83z M404.3,83.9v-8.6h1v3.1
	c0.5-0.6,1.1-0.8,1.9-0.8c0.5,0,0.9,0.1,1.2,0.3c0.3,0.2,0.6,0.4,0.7,0.8c0.1,0.3,0.2,0.8,0.2,1.4V84h-1v-4c0-0.5-0.1-0.9-0.3-1.2
	c-0.2-0.2-0.6-0.4-1-0.4c-0.3,0-0.6,0.1-0.9,0.2c-0.3,0.2-0.5,0.4-0.6,0.7c-0.1,0.3-0.2,0.7-0.2,1.1v3.4h-1V83.9z M415.4,83.2
	c-0.4,0.3-0.8,0.6-1.1,0.7c-0.4,0.1-0.7,0.2-1.2,0.2c-0.7,0-1.2-0.2-1.6-0.5s-0.5-0.8-0.5-1.3c0-0.3,0.1-0.6,0.2-0.8
	c0.1-0.3,0.3-0.5,0.5-0.6c0.2-0.2,0.5-0.3,0.8-0.3c0.2-0.1,0.5-0.1,0.9-0.2c0.8-0.1,1.5-0.2,1.9-0.4c0-0.1,0-0.2,0-0.3
	c0-0.4-0.1-0.7-0.3-0.9c-0.3-0.2-0.7-0.3-1.2-0.3s-0.9,0.1-1.1,0.3c-0.2,0.2-0.4,0.5-0.5,0.9l-1-0.1c0.1-0.4,0.2-0.8,0.5-1.1
	c0.2-0.3,0.5-0.5,0.9-0.6s0.9-0.2,1.4-0.2s1,0.1,1.3,0.2s0.6,0.3,0.7,0.5s0.3,0.4,0.3,0.7c0,0.2,0,0.5,0,1v1.4c0,1,0,1.6,0.1,1.9
	s0.1,0.5,0.3,0.8h-1.1C415.5,83.7,415.4,83.4,415.4,83.2z M415.3,80.8c-0.4,0.2-1,0.3-1.7,0.4c-0.4,0.1-0.7,0.1-0.9,0.2
	c-0.2,0.1-0.3,0.2-0.4,0.3c-0.1,0.1-0.1,0.3-0.1,0.5c0,0.3,0.1,0.5,0.3,0.7c0.2,0.2,0.5,0.3,0.9,0.3s0.8-0.1,1.1-0.3
	c0.3-0.2,0.6-0.4,0.7-0.7c0.1-0.2,0.2-0.6,0.2-1v-0.4H415.3z M422.3,83.9v-0.8c-0.4,0.6-1,0.9-1.7,0.9c-0.5,0-1-0.1-1.4-0.4
	s-0.7-0.7-1-1.2c-0.2-0.5-0.3-1.1-0.3-1.7s0.1-1.2,0.3-1.7c0.2-0.5,0.5-0.9,0.9-1.2c0.4-0.3,0.9-0.4,1.4-0.4c0.4,0,0.7,0.1,1,0.2
	s0.5,0.4,0.7,0.6v-3.1h1v8.6h-0.9V83.9z M419,80.8c0,0.8,0.2,1.4,0.5,1.8s0.7,0.6,1.2,0.6s0.8-0.2,1.2-0.6s0.5-0.9,0.5-1.7
	c0-0.9-0.2-1.5-0.5-1.9s-0.7-0.6-1.2-0.6s-0.9,0.2-1.2,0.6C419.2,79.4,419,80,419,80.8z M424.9,80.8c0-1.2,0.3-2,1-2.6
	c0.5-0.5,1.2-0.7,2-0.7c0.9,0,1.6,0.3,2.1,0.8c0.6,0.6,0.8,1.3,0.8,2.3c0,0.8-0.1,1.4-0.4,1.9c-0.2,0.5-0.6,0.8-1.1,1.1
	c-0.5,0.2-1,0.4-1.5,0.4c-0.9,0-1.6-0.3-2.1-0.8C425.2,82.7,424.9,81.9,424.9,80.8z M426,80.8c0,0.8,0.2,1.4,0.5,1.8
	c0.4,0.4,0.8,0.6,1.3,0.6s1-0.2,1.3-0.6s0.5-1,0.5-1.8s-0.2-1.4-0.5-1.8s-0.8-0.6-1.3-0.6s-1,0.2-1.3,0.6S426,80,426,80.8z
	 M432.3,83.9v-6.2h0.9v0.9c0.5-0.7,1.1-1,2-1c0.4,0,0.7,0.1,1,0.2s0.6,0.3,0.7,0.5s0.3,0.5,0.3,0.8c0,0.2,0,0.5,0,1v3.8h-1v-3.8
	c0-0.4,0-0.8-0.1-1s-0.2-0.4-0.4-0.5c-0.2-0.1-0.5-0.2-0.7-0.2c-0.4,0-0.8,0.1-1.2,0.4c-0.3,0.3-0.5,0.8-0.5,1.6v3.4L432.3,83.9
	L432.3,83.9z M443.5,81.9l1.1,0.1c-0.2,0.6-0.5,1.1-1,1.5s-1.1,0.5-1.8,0.5c-0.9,0-1.6-0.3-2.2-0.8c-0.5-0.6-0.8-1.3-0.8-2.4
	c0-1,0.3-1.8,0.8-2.4s1.2-0.9,2.1-0.9c0.8,0,1.5,0.3,2,0.8c0.5,0.6,0.8,1.4,0.8,2.4c0,0.1,0,0.2,0,0.3H440c0,0.7,0.2,1.2,0.6,1.6
	c0.3,0.4,0.8,0.5,1.3,0.5c0.4,0,0.7-0.1,1-0.3C443.2,82.7,443.4,82.4,443.5,81.9z M440.1,80.2h3.5c0-0.5-0.2-0.9-0.4-1.2
	c-0.3-0.4-0.8-0.6-1.3-0.6s-0.9,0.2-1.2,0.5C440.3,79.2,440.1,79.7,440.1,80.2z"/>
<path class="st32" d="M19.5,30.6c0-2.4,0.6-4.2,1.9-5.6c1.3-1.4,2.9-2,5-2c1.3,0,2.5,0.3,3.6,1c1.1,0.6,1.9,1.5,2.4,2.7
	c0.6,1.1,0.8,2.4,0.8,3.8s-0.3,2.7-0.9,3.9c-0.6,1.1-1.4,2-2.5,2.6s-2.2,0.9-3.5,0.9s-2.5-0.3-3.6-1s-1.9-1.5-2.4-2.7
	S19.5,31.8,19.5,30.6z M21.5,30.6c0,1.7,0.5,3.1,1.4,4.1s2.1,1.5,3.5,1.5s2.6-0.5,3.5-1.5s1.4-2.4,1.4-4.3c0-1.2-0.2-2.2-0.6-3
	c-0.4-0.9-1-1.6-1.7-2c-0.8-0.5-1.6-0.7-2.6-0.7c-1.3,0-2.5,0.5-3.5,1.4C22,26.9,21.5,28.5,21.5,30.6z M38.8,37.5l-4-10.4h1.9
	l2.2,6.2c0.2,0.7,0.5,1.4,0.7,2.1c0.2-0.5,0.4-1.2,0.7-2l2.3-6.3h1.8l-3.9,10.4H38.8z M52,34.2l1.8,0.2c-0.3,1.1-0.8,1.9-1.6,2.5
	s-1.8,0.9-3,0.9c-1.5,0-2.7-0.5-3.6-1.4c-0.9-0.9-1.3-2.2-1.3-3.9c0-1.8,0.4-3.1,1.3-4.1c0.9-1,2.1-1.5,3.5-1.5s2.5,0.5,3.4,1.4
	s1.3,2.3,1.3,4c0,0.1,0,0.3,0,0.5h-7.7c0.1,1.1,0.4,2,1,2.6s1.3,0.9,2.2,0.9c0.6,0,1.2-0.2,1.6-0.5S51.7,34.9,52,34.2z M46.2,31.4
	H52c-0.1-0.9-0.3-1.5-0.7-2c-0.6-0.7-1.3-1-2.2-1c-0.8,0-1.5,0.3-2,0.8C46.6,29.7,46.3,30.5,46.2,31.4z M55.8,37.5V27.2h1.6v1.6
	c0.4-0.7,0.8-1.2,1.1-1.5c0.3-0.2,0.7-0.4,1.1-0.4c0.6,0,1.2,0.2,1.8,0.6l-0.6,1.6c-0.4-0.3-0.9-0.4-1.3-0.4c-0.4,0-0.7,0.1-1,0.4
	c-0.3,0.2-0.5,0.5-0.7,1c-0.2,0.6-0.3,1.3-0.3,2v5.4C57.5,37.5,55.8,37.5,55.8,37.5z M69.6,37.5v-1.3c-0.7,1-1.6,1.5-2.9,1.5
	c-0.8,0-1.6-0.2-2.3-0.7c-0.7-0.5-1.2-1.1-1.6-1.9c-0.4-0.8-0.6-1.8-0.6-2.8s0.2-2,0.5-2.8s0.9-1.5,1.5-1.9c0.7-0.4,1.5-0.7,2.3-0.7
	c0.6,0,1.2,0.1,1.7,0.4s0.9,0.6,1.2,1v-5.1h1.7v14.3H69.6z M64,32.4c0,1.3,0.3,2.3,0.8,3s1.2,1,2,1s1.4-0.3,2-0.9
	c0.5-0.6,0.8-1.6,0.8-2.9c0-1.4-0.3-2.5-0.8-3.1c-0.5-0.7-1.2-1-2-1s-1.4,0.3-2,1C64.3,30,64,31,64,32.4z M73.2,32.4
	c0-1.9,0.5-3.3,1.6-4.3c0.9-0.8,2-1.2,3.3-1.2c1.4,0,2.6,0.5,3.5,1.4s1.4,2.2,1.4,3.9c0,1.3-0.2,2.4-0.6,3.2s-1,1.4-1.8,1.8
	c-0.8,0.4-1.6,0.6-2.5,0.6c-1.5,0-2.6-0.5-3.5-1.4C73.7,35.5,73.2,34.1,73.2,32.4z M75,32.4c0,1.3,0.3,2.3,0.9,3s1.3,1,2.2,1
	c0.9,0,1.6-0.3,2.2-1s0.9-1.7,0.9-3s-0.3-2.3-0.9-2.9c-0.6-0.7-1.3-1-2.2-1c-0.9,0-1.6,0.3-2.2,1C75.3,30,75,31,75,32.4z M84.2,34.5
	l1.8-0.3c0.1,0.7,0.4,1.2,0.8,1.6c0.4,0.4,1.1,0.5,1.9,0.5s1.4-0.2,1.8-0.5s0.6-0.7,0.6-1.2c0-0.4-0.2-0.7-0.5-0.9
	c-0.2-0.2-0.8-0.4-1.8-0.6c-1.3-0.3-2.2-0.6-2.7-0.8s-0.9-0.6-1.1-1c-0.3-0.4-0.4-0.9-0.4-1.4s0.1-0.9,0.3-1.3
	c0.2-0.4,0.5-0.7,0.9-1c0.3-0.2,0.6-0.4,1.1-0.5s1-0.2,1.5-0.2c0.8,0,1.5,0.1,2.1,0.4c0.6,0.2,1.1,0.5,1.4,1
	c0.3,0.4,0.5,0.9,0.6,1.6l-1.7,0.2c-0.1-0.5-0.3-0.9-0.7-1.2c-0.4-0.3-0.9-0.5-1.6-0.5c-0.8,0-1.4,0.1-1.7,0.4
	c-0.3,0.3-0.5,0.6-0.5,0.9c0,0.2,0.1,0.4,0.2,0.6s0.4,0.3,0.7,0.5c0.2,0.1,0.7,0.2,1.5,0.4c1.3,0.3,2.1,0.6,2.6,0.8s0.9,0.5,1.2,0.9
	c0.3,0.4,0.4,0.9,0.4,1.5s-0.2,1.1-0.5,1.7c-0.3,0.5-0.8,0.9-1.5,1.2c-0.6,0.3-1.4,0.4-2.2,0.4c-1.3,0-2.4-0.3-3.1-0.8
	S84.4,35.5,84.2,34.5z M102,34.2l1.8,0.2c-0.3,1.1-0.8,1.9-1.6,2.5c-0.8,0.6-1.8,0.9-3,0.9c-1.5,0-2.7-0.5-3.6-1.4s-1.3-2.2-1.3-3.9
	c0-1.8,0.4-3.1,1.3-4.1s2.1-1.5,3.5-1.5s2.5,0.5,3.4,1.4s1.3,2.3,1.3,4c0,0.1,0,0.3,0,0.5h-7.7c0.1,1.1,0.4,2,1,2.6s1.3,0.9,2.2,0.9
	c0.6,0,1.2-0.2,1.6-0.5C101.3,35.5,101.7,34.9,102,34.2z M96.2,31.4h5.8c-0.1-0.9-0.3-1.5-0.7-2c-0.6-0.7-1.3-1-2.2-1
	c-0.8,0-1.5,0.3-2,0.8C96.6,29.7,96.3,30.5,96.2,31.4z M112.1,37.5V23.2h4.9c1.1,0,2,0.1,2.6,0.2c0.8,0.2,1.5,0.5,2.1,1
	c0.8,0.6,1.3,1.5,1.7,2.5c0.4,1,0.6,2.1,0.6,3.4c0,1.1-0.1,2-0.4,2.9c-0.2,0.8-0.6,1.5-1,2.1s-0.8,1-1.3,1.3s-1,0.6-1.7,0.7
	c-0.7,0.2-1.4,0.2-2.3,0.2H112.1z M114,35.9h3.1c0.9,0,1.7-0.1,2.2-0.3s1-0.4,1.3-0.8c0.4-0.4,0.8-1,1-1.8c0.3-0.8,0.4-1.7,0.4-2.8
	c0-1.5-0.2-2.7-0.7-3.5s-1.1-1.3-1.8-1.6c-0.5-0.2-1.3-0.3-2.4-0.3h-3L114,35.9L114,35.9z M133,34.2l1.8,0.2
	c-0.3,1.1-0.8,1.9-1.6,2.5s-1.8,0.9-3,0.9c-1.5,0-2.7-0.5-3.6-1.4s-1.3-2.2-1.3-3.9c0-1.8,0.4-3.1,1.3-4.1s2.1-1.5,3.5-1.5
	c1.4,0,2.5,0.5,3.4,1.4s1.3,2.3,1.3,4c0,0.1,0,0.3,0,0.5h-7.7c0.1,1.1,0.4,2,1,2.6c0.6,0.6,1.3,0.9,2.2,0.9c0.6,0,1.2-0.2,1.6-0.5
	C132.3,35.5,132.7,34.9,133,34.2z M127.2,31.4h5.8c-0.1-0.9-0.3-1.5-0.7-2c-0.6-0.7-1.3-1-2.2-1c-0.8,0-1.5,0.3-2,0.8
	C127.6,29.7,127.3,30.5,127.2,31.4z M143.6,36.3c-0.7,0.6-1.3,0.9-1.9,1.2c-0.6,0.2-1.2,0.3-1.9,0.3c-1.1,0-2-0.3-2.6-0.8
	c-0.6-0.6-0.9-1.3-0.9-2.1c0-0.5,0.1-1,0.3-1.4s0.5-0.8,0.9-1c0.4-0.3,0.8-0.5,1.3-0.6c0.3-0.1,0.9-0.2,1.6-0.3
	c1.4-0.2,2.5-0.4,3.1-0.6c0-0.2,0-0.4,0-0.5c0-0.7-0.2-1.2-0.5-1.5c-0.4-0.4-1.1-0.6-2-0.6c-0.8,0-1.4,0.1-1.8,0.4
	c-0.4,0.3-0.7,0.8-0.9,1.5l-1.7-0.2c0.2-0.7,0.4-1.3,0.8-1.8c0.4-0.5,0.9-0.8,1.5-1c0.7-0.3,1.5-0.4,2.4-0.4s1.6,0.1,2.2,0.3
	c0.6,0.2,1,0.5,1.2,0.8c0.3,0.3,0.4,0.7,0.5,1.2c0.1,0.3,0.1,0.8,0.1,1.6v2.3c0,1.6,0,2.7,0.1,3.1c0.1,0.4,0.2,0.8,0.5,1.2H144
	C143.8,37.2,143.7,36.8,143.6,36.3z M143.5,32.3c-0.6,0.3-1.6,0.5-2.9,0.7c-0.7,0.1-1.2,0.2-1.5,0.4c-0.3,0.1-0.5,0.3-0.7,0.6
	c-0.2,0.2-0.2,0.5-0.2,0.8c0,0.5,0.2,0.9,0.5,1.2c0.4,0.3,0.9,0.5,1.6,0.5c0.7,0,1.3-0.1,1.8-0.4c0.5-0.3,0.9-0.7,1.2-1.2
	c0.2-0.4,0.3-1,0.3-1.8v-0.8H143.5z M151.7,36l0.2,1.6c-0.5,0.1-0.9,0.2-1.3,0.2c-0.6,0-1.1-0.1-1.5-0.3c-0.3-0.2-0.6-0.5-0.7-0.8
	c-0.1-0.3-0.2-1-0.2-2.1v-6h-1.3v-1.4h1.3v-2.6l1.8-1.1v3.6h1.8v1.4H150v6.1c0,0.5,0,0.8,0.1,1c0.1,0.1,0.2,0.2,0.3,0.3
	s0.3,0.1,0.6,0.1C151.1,36,151.4,36,151.7,36z M153.9,37.5V23.2h1.8v5.1c0.8-0.9,1.9-1.4,3.1-1.4c0.8,0,1.4,0.2,2,0.5s1,0.7,1.2,1.3
	c0.2,0.5,0.4,1.3,0.4,2.3v6.6h-1.8V31c0-0.9-0.2-1.5-0.6-1.9c-0.4-0.4-0.9-0.6-1.6-0.6c-0.5,0-1,0.1-1.5,0.4s-0.8,0.6-1,1.1
	s-0.3,1.1-0.3,1.9v5.7L153.9,37.5L153.9,37.5z M170.1,37.5V23.2h6.3c1.3,0,2.2,0.1,2.9,0.4c0.7,0.2,1.2,0.7,1.6,1.4
	c0.4,0.6,0.6,1.4,0.6,2.2c0,1-0.3,1.9-1,2.6s-1.7,1.1-3,1.3c0.5,0.2,0.9,0.5,1.1,0.7c0.6,0.5,1.1,1.1,1.6,1.9l2.5,3.9h-2.4l-1.9-3
	c-0.6-0.9-1-1.5-1.4-2s-0.7-0.8-1-1s-0.6-0.3-0.9-0.4c-0.2,0-0.6-0.1-1-0.1H172v6.4C172,37.5,170.1,37.5,170.1,37.5z M172,29.5h4.1
	c0.9,0,1.5-0.1,2-0.3c0.5-0.2,0.9-0.5,1.1-0.9c0.3-0.4,0.4-0.8,0.4-1.3c0-0.7-0.2-1.2-0.7-1.7c-0.5-0.4-1.3-0.7-2.3-0.7H172V29.5z
	 M190.6,36.3c-0.7,0.6-1.3,0.9-1.9,1.2c-0.6,0.2-1.2,0.3-1.9,0.3c-1.1,0-2-0.3-2.6-0.8c-0.6-0.6-0.9-1.3-0.9-2.1
	c0-0.5,0.1-1,0.3-1.4s0.5-0.8,0.9-1c0.4-0.3,0.8-0.5,1.3-0.6c0.3-0.1,0.9-0.2,1.6-0.3c1.4-0.2,2.5-0.4,3.1-0.6c0-0.2,0-0.4,0-0.5
	c0-0.7-0.2-1.2-0.5-1.5c-0.4-0.4-1.1-0.6-2-0.6c-0.8,0-1.4,0.1-1.8,0.4c-0.4,0.3-0.7,0.8-0.9,1.5l-1.7-0.2c0.2-0.7,0.4-1.3,0.8-1.8
	c0.4-0.5,0.9-0.8,1.5-1c0.7-0.3,1.5-0.4,2.4-0.4s1.6,0.1,2.2,0.3c0.6,0.2,1,0.5,1.2,0.8c0.3,0.3,0.4,0.7,0.5,1.2
	c0.1,0.3,0.1,0.8,0.1,1.6v2.3c0,1.6,0,2.7,0.1,3.1c0.1,0.4,0.2,0.8,0.5,1.2H191C190.8,37.2,190.7,36.8,190.6,36.3z M190.5,32.3
	c-0.6,0.3-1.6,0.5-2.9,0.7c-0.7,0.1-1.2,0.2-1.5,0.4c-0.3,0.1-0.5,0.3-0.7,0.6c-0.2,0.2-0.2,0.5-0.2,0.8c0,0.5,0.2,0.9,0.5,1.2
	c0.4,0.3,0.9,0.5,1.6,0.5c0.7,0,1.3-0.1,1.8-0.4c0.5-0.3,0.9-0.7,1.2-1.2c0.2-0.4,0.3-1,0.3-1.8v-0.8H190.5z M198.7,36l0.2,1.6
	c-0.5,0.1-0.9,0.2-1.3,0.2c-0.6,0-1.1-0.1-1.5-0.3c-0.3-0.2-0.6-0.5-0.7-0.8c-0.1-0.3-0.2-1-0.2-2.1v-6h-1.3v-1.4h1.3v-2.6l1.8-1.1
	v3.6h1.8v1.4H197v6.1c0,0.5,0,0.8,0.1,1c0.1,0.1,0.2,0.2,0.3,0.3s0.3,0.1,0.6,0.1C198.1,36,198.4,36,198.7,36z M208,34.2l1.8,0.2
	c-0.3,1.1-0.8,1.9-1.6,2.5s-1.8,0.9-3,0.9c-1.5,0-2.7-0.5-3.6-1.4c-0.9-0.9-1.3-2.2-1.3-3.9c0-1.8,0.4-3.1,1.3-4.1
	c0.9-1,2.1-1.5,3.5-1.5s2.5,0.5,3.4,1.4s1.3,2.3,1.3,4c0,0.1,0,0.3,0,0.5h-7.7c0.1,1.1,0.4,2,1,2.6s1.3,0.9,2.2,0.9
	c0.6,0,1.2-0.2,1.6-0.5S207.7,34.9,208,34.2z M202.2,31.4h5.8c-0.1-0.9-0.3-1.5-0.7-2c-0.6-0.7-1.3-1-2.2-1c-0.8,0-1.5,0.3-2,0.8
	C202.6,29.7,202.3,30.5,202.2,31.4z M211.2,34.5l1.8-0.3c0.1,0.7,0.4,1.2,0.8,1.6c0.4,0.4,1.1,0.5,1.9,0.5c0.8,0,1.4-0.2,1.8-0.5
	c0.4-0.3,0.6-0.7,0.6-1.2c0-0.4-0.2-0.7-0.5-0.9c-0.2-0.2-0.8-0.4-1.8-0.6c-1.3-0.3-2.2-0.6-2.7-0.8s-0.9-0.6-1.1-1
	c-0.3-0.4-0.4-0.9-0.4-1.4s0.1-0.9,0.3-1.3s0.5-0.7,0.9-1c0.3-0.2,0.6-0.4,1.1-0.5s1-0.2,1.5-0.2c0.8,0,1.5,0.1,2.1,0.4
	c0.6,0.2,1.1,0.5,1.4,1c0.3,0.4,0.5,0.9,0.6,1.6l-1.7,0.2c-0.1-0.5-0.3-0.9-0.7-1.2c-0.4-0.3-0.9-0.5-1.6-0.5
	c-0.8,0-1.4,0.1-1.7,0.4s-0.5,0.6-0.5,0.9c0,0.2,0.1,0.4,0.2,0.6c0.1,0.2,0.4,0.3,0.7,0.5c0.2,0.1,0.7,0.2,1.5,0.4
	c1.2,0.3,2.1,0.6,2.6,0.8s0.9,0.5,1.2,0.9c0.3,0.4,0.4,0.9,0.4,1.5s-0.2,1.1-0.5,1.7c-0.3,0.5-0.8,0.9-1.5,1.2
	c-0.6,0.3-1.4,0.4-2.2,0.4c-1.3,0-2.4-0.3-3.1-0.8C211.8,36.4,211.4,35.5,211.2,34.5z M228.1,37.5V23.2h5.4c1,0,1.7,0,2.2,0.1
	c0.7,0.1,1.3,0.4,1.8,0.7c0.5,0.3,0.9,0.8,1.1,1.4c0.3,0.6,0.4,1.2,0.4,2c0,1.2-0.4,2.2-1.2,3.1c-0.8,0.8-2.2,1.2-4.2,1.2H230v5.8
	C230,37.5,228.1,37.5,228.1,37.5z M230,30h3.7c1.2,0,2.1-0.2,2.6-0.7s0.8-1.1,0.8-1.9c0-0.6-0.2-1.1-0.5-1.5s-0.7-0.7-1.2-0.8
	c-0.3-0.1-0.9-0.1-1.8-0.1H230V30z M248,34.2l1.8,0.2c-0.3,1.1-0.8,1.9-1.6,2.5s-1.8,0.9-3,0.9c-1.5,0-2.7-0.5-3.6-1.4
	c-0.9-0.9-1.3-2.2-1.3-3.9c0-1.8,0.4-3.1,1.3-4.1c0.9-1,2.1-1.5,3.5-1.5s2.5,0.5,3.4,1.4s1.3,2.3,1.3,4c0,0.1,0,0.3,0,0.5h-7.7
	c0.1,1.1,0.4,2,1,2.6s1.3,0.9,2.2,0.9c0.6,0,1.2-0.2,1.6-0.5S247.7,34.9,248,34.2z M242.2,31.4h5.8c-0.1-0.9-0.3-1.5-0.7-2
	c-0.6-0.7-1.3-1-2.2-1c-0.8,0-1.5,0.3-2,0.8C242.6,29.7,242.3,30.5,242.2,31.4z M251.8,37.5V27.2h1.6v1.6c0.4-0.7,0.8-1.2,1.1-1.5
	c0.3-0.2,0.7-0.4,1.1-0.4c0.6,0,1.2,0.2,1.8,0.6l-0.6,1.6c-0.4-0.3-0.9-0.4-1.3-0.4c-0.4,0-0.7,0.1-1,0.4c-0.3,0.2-0.5,0.5-0.7,1
	c-0.2,0.6-0.3,1.3-0.3,2v5.4C253.5,37.5,251.8,37.5,251.8,37.5z M264.5,30.6c0-2.4,0.6-4.2,1.9-5.6c1.3-1.4,2.9-2,5-2
	c1.3,0,2.5,0.3,3.6,1c1.1,0.6,1.9,1.5,2.4,2.7c0.6,1.1,0.8,2.4,0.8,3.8s-0.3,2.7-0.9,3.9c-0.6,1.1-1.4,2-2.5,2.6s-2.2,0.9-3.5,0.9
	s-2.5-0.3-3.6-1s-1.9-1.5-2.4-2.7S264.5,31.8,264.5,30.6z M266.5,30.6c0,1.7,0.5,3.1,1.4,4.1s2.1,1.5,3.5,1.5s2.6-0.5,3.5-1.5
	s1.4-2.4,1.4-4.3c0-1.2-0.2-2.2-0.6-3c-0.4-0.9-1-1.6-1.7-2c-0.8-0.5-1.6-0.7-2.6-0.7c-1.3,0-2.5,0.5-3.5,1.4
	C267,26.9,266.5,28.5,266.5,30.6z M280.9,41.5V27.2h1.6v1.3c0.4-0.5,0.8-0.9,1.3-1.2c0.5-0.3,1.1-0.4,1.7-0.4c0.9,0,1.7,0.2,2.3,0.7
	c0.7,0.5,1.2,1.1,1.5,1.9c0.4,0.8,0.5,1.7,0.5,2.7c0,1.1-0.2,2-0.6,2.9c-0.4,0.8-0.9,1.5-1.7,2c-0.7,0.4-1.5,0.7-2.3,0.7
	c-0.6,0-1.1-0.1-1.6-0.4c-0.5-0.2-0.8-0.6-1.1-0.9v5H280.9z M282.5,32.4c0,1.3,0.3,2.3,0.8,3c0.5,0.6,1.2,1,2,1s1.4-0.3,2-1
	s0.8-1.7,0.8-3.1c0-1.3-0.3-2.3-0.8-3s-1.2-1-1.9-1c-0.8,0-1.4,0.4-2,1.1C282.7,30.1,282.5,31.1,282.5,32.4z M291.9,25.3v-2h1.8v2
	H291.9z M291.9,37.5V27.2h1.8v10.4L291.9,37.5L291.9,37.5z M295.2,32.4c0-1.9,0.5-3.3,1.6-4.3c0.9-0.8,2-1.2,3.3-1.2
	c1.4,0,2.6,0.5,3.5,1.4s1.4,2.2,1.4,3.9c0,1.3-0.2,2.4-0.6,3.2s-1,1.4-1.8,1.8c-0.8,0.4-1.6,0.6-2.5,0.6c-1.5,0-2.6-0.5-3.5-1.4
	C295.7,35.5,295.2,34.1,295.2,32.4z M297,32.4c0,1.3,0.3,2.3,0.9,3s1.3,1,2.2,1c0.9,0,1.6-0.3,2.2-1s0.9-1.7,0.9-3s-0.3-2.3-0.9-2.9
	c-0.6-0.7-1.3-1-2.2-1c-0.9,0-1.6,0.3-2.2,1C297.3,30,297,31,297,32.4z M306.9,25.3v-2h1.8v2H306.9z M306.9,37.5V27.2h1.8v10.4
	L306.9,37.5L306.9,37.5z M317.6,37.5v-1.3c-0.7,1-1.6,1.5-2.9,1.5c-0.8,0-1.6-0.2-2.3-0.7c-0.7-0.5-1.2-1.1-1.6-1.9
	c-0.4-0.8-0.6-1.8-0.6-2.8s0.2-2,0.5-2.8s0.9-1.5,1.5-1.9c0.7-0.4,1.5-0.7,2.3-0.7c0.6,0,1.2,0.1,1.7,0.4s0.9,0.6,1.2,1v-5.1h1.7
	v14.3H317.6z M312,32.4c0,1.3,0.3,2.3,0.8,3s1.2,1,2,1s1.4-0.3,2-0.9c0.5-0.6,0.8-1.6,0.8-2.9c0-1.4-0.3-2.5-0.8-3.1
	c-0.5-0.7-1.2-1-2-1s-1.4,0.3-2,1C312.3,30,312,31,312,32.4z M327.9,25.3v-2h1.8v2H327.9z M327.9,37.5V27.2h1.8v10.4L327.9,37.5
	L327.9,37.5z M331.9,37.5V27.2h1.6v1.5c0.8-1.1,1.9-1.7,3.3-1.7c0.6,0,1.2,0.1,1.7,0.3c0.5,0.2,0.9,0.5,1.2,0.9
	c0.3,0.4,0.4,0.8,0.5,1.3c0.1,0.3,0.1,0.9,0.1,1.7v6.4h-1.8v-6.3c0-0.7-0.1-1.3-0.2-1.6c-0.1-0.4-0.4-0.6-0.7-0.8
	c-0.3-0.2-0.8-0.3-1.2-0.3c-0.8,0-1.4,0.2-1.9,0.7s-0.8,1.4-0.8,2.7v5.7h-1.8V37.5z M350.6,37.5l-3.8-14.3h1.9l2.2,9.4
	c0.2,1,0.4,2,0.6,2.9c0.4-1.5,0.6-2.4,0.6-2.7l2.7-9.7h2.3l2,7.2c0.5,1.8,0.9,3.5,1.1,5.1c0.2-0.9,0.4-1.9,0.7-3.1l2.2-9.2h1.9
	l-3.9,14.3h-1.8l-3-10.9c-0.3-0.9-0.4-1.5-0.5-1.7c-0.2,0.7-0.3,1.2-0.4,1.7l-3,10.9h-1.8V37.5z M373.6,36.3
	c-0.7,0.6-1.3,0.9-1.9,1.2c-0.6,0.2-1.3,0.3-1.9,0.3c-1.1,0-2-0.3-2.6-0.8c-0.6-0.6-0.9-1.3-0.9-2.1c0-0.5,0.1-1,0.3-1.4
	c0.2-0.4,0.5-0.8,0.9-1c0.4-0.3,0.8-0.5,1.3-0.6c0.3-0.1,0.9-0.2,1.6-0.3c1.4-0.2,2.5-0.4,3.1-0.6c0-0.2,0-0.4,0-0.5
	c0-0.7-0.2-1.2-0.5-1.5c-0.4-0.4-1.1-0.6-2-0.6c-0.8,0-1.4,0.1-1.8,0.4s-0.7,0.8-0.9,1.5l-1.7-0.2c0.2-0.7,0.4-1.3,0.8-1.8
	s0.9-0.8,1.5-1c0.7-0.3,1.5-0.4,2.4-0.4s1.6,0.1,2.2,0.3c0.6,0.2,1,0.5,1.2,0.8c0.3,0.3,0.4,0.7,0.5,1.2c0.1,0.3,0.1,0.8,0.1,1.6
	v2.3c0,1.6,0,2.7,0.1,3.1c0.1,0.4,0.2,0.8,0.5,1.2H374C373.8,37.2,373.7,36.8,373.6,36.3z M373.5,32.3c-0.6,0.3-1.6,0.5-2.9,0.7
	c-0.7,0.1-1.2,0.2-1.5,0.4c-0.3,0.1-0.5,0.3-0.7,0.6c-0.2,0.2-0.3,0.5-0.2,0.8c0,0.5,0.2,0.9,0.5,1.2c0.4,0.3,0.9,0.5,1.6,0.5
	s1.3-0.1,1.8-0.4c0.5-0.3,0.9-0.7,1.2-1.2c0.2-0.4,0.3-1,0.3-1.8L373.5,32.3L373.5,32.3z M380.8,37.5l-4-10.4h1.9l2.2,6.2
	c0.2,0.7,0.5,1.4,0.7,2.1c0.2-0.5,0.4-1.2,0.7-2l2.3-6.3h1.8l-3.9,10.4H380.8z M394,34.2l1.8,0.2c-0.3,1.1-0.8,1.9-1.6,2.5
	c-0.8,0.6-1.8,0.9-3,0.9c-1.5,0-2.7-0.5-3.6-1.4s-1.3-2.2-1.3-3.9c0-1.8,0.4-3.1,1.3-4.1s2.1-1.5,3.5-1.5s2.5,0.5,3.4,1.4
	s1.3,2.3,1.3,4c0,0.1,0,0.3,0,0.5h-7.7c0.1,1.1,0.4,2,1,2.6s1.3,0.9,2.2,0.9c0.6,0,1.2-0.2,1.6-0.5C393.3,35.5,393.7,34.9,394,34.2z
	 M388.2,31.4h5.8c-0.1-0.9-0.3-1.5-0.7-2c-0.6-0.7-1.3-1-2.2-1c-0.8,0-1.5,0.3-2,0.8C388.6,29.7,388.3,30.5,388.2,31.4z M407.7,37.5
	V24.9H403v-1.7h11.3v1.7h-4.7v12.6H407.7z M417.8,37.5l-3.2-10.4h1.8l1.7,6l0.6,2.2c0-0.1,0.2-0.8,0.5-2.1l1.7-6.1h1.8l1.5,6l0.5,2
	l0.6-2l1.8-6h1.7l-3.2,10.4h-1.8l-1.7-6.2l-0.4-1.8l-2.1,8H417.8z M430.2,32.4c0-1.9,0.5-3.3,1.6-4.3c0.9-0.8,2-1.2,3.3-1.2
	c1.4,0,2.6,0.5,3.5,1.4s1.4,2.2,1.4,3.9c0,1.3-0.2,2.4-0.6,3.2s-1,1.4-1.8,1.8c-0.8,0.4-1.6,0.6-2.5,0.6c-1.5,0-2.6-0.5-3.5-1.4
	C430.7,35.5,430.2,34.1,430.2,32.4z M432,32.4c0,1.3,0.3,2.3,0.9,3s1.3,1,2.2,1c0.9,0,1.6-0.3,2.2-1s0.9-1.7,0.9-3s-0.3-2.3-0.9-2.9
	c-0.6-0.7-1.3-1-2.2-1c-0.9,0-1.6,0.3-2.2,1C432.3,30,432,31,432,32.4z M451.2,41.8c-1-1.2-1.8-2.6-2.5-4.3c-0.7-1.6-1-3.3-1-5.1
	c0-1.6,0.2-3,0.8-4.5c0.6-1.6,1.5-3.3,2.7-4.9h1.3c-0.8,1.4-1.3,2.3-1.6,2.9c-0.4,0.9-0.7,1.8-0.9,2.8c-0.3,1.2-0.4,2.4-0.4,3.7
	c0,3.1,1,6.2,2.9,9.4C452.5,41.8,451.2,41.8,451.2,41.8z M463.6,35.9v1.7h-9.5c0-0.4,0.1-0.8,0.2-1.2c0.2-0.6,0.6-1.3,1.2-1.9
	c0.5-0.6,1.3-1.3,2.3-2.2c1.6-1.3,2.6-2.3,3.2-3c0.6-0.8,0.8-1.5,0.8-2.1c0-0.7-0.3-1.3-0.8-1.8s-1.2-0.7-2-0.7s-1.5,0.3-2,0.8
	s-0.8,1.2-0.8,2.1l-1.8-0.2c0.1-1.3,0.6-2.4,1.4-3.1s1.9-1.1,3.3-1.1s2.4,0.4,3.2,1.1c0.8,0.8,1.2,1.7,1.2,2.8
	c0,0.6-0.1,1.1-0.4,1.7c-0.2,0.6-0.6,1.1-1.2,1.8c-0.5,0.6-1.4,1.4-2.7,2.5c-1.1,0.9-1.7,1.5-2,1.8s-0.5,0.6-0.7,1
	C456.5,35.9,463.6,35.9,463.6,35.9z M465.4,30.5c0-1.7,0.2-3,0.5-4.1c0.4-1,0.9-1.8,1.6-2.4s1.6-0.8,2.6-0.8c0.8,0,1.4,0.2,2,0.5
	s1.1,0.7,1.4,1.3c0.4,0.6,0.7,1.3,0.9,2.1c0.2,0.8,0.3,2,0.3,3.4c0,1.7-0.2,3-0.5,4.1c-0.3,1-0.9,1.8-1.5,2.4
	c-0.7,0.6-1.5,0.8-2.6,0.8c-1.4,0-2.5-0.5-3.2-1.5C465.9,35.1,465.4,33.2,465.4,30.5z M467.2,30.5c0,2.4,0.3,3.9,0.8,4.7
	c0.6,0.8,1.2,1.2,2,1.2s1.5-0.4,2-1.2c0.6-0.8,0.8-2.3,0.8-4.7s-0.3-3.9-0.8-4.7c-0.6-0.8-1.2-1.2-2-1.2s-1.5,0.3-1.9,1
	C467.5,26.5,467.2,28.1,467.2,30.5z M483,37.5h-1.8V26.3c-0.4,0.4-1,0.8-1.7,1.2c-0.7,0.4-1.3,0.7-1.9,0.9v-1.7c1-0.5,1.8-1,2.6-1.7
	c0.7-0.7,1.3-1.3,1.6-1.9h1.1L483,37.5L483,37.5z M487.4,30.5c0-1.7,0.2-3,0.5-4.1c0.4-1,0.9-1.8,1.6-2.4s1.6-0.8,2.6-0.8
	c0.8,0,1.4,0.2,2,0.5s1.1,0.7,1.4,1.3c0.4,0.6,0.7,1.3,0.9,2.1c0.2,0.8,0.3,2,0.3,3.4c0,1.7-0.2,3-0.5,4.1c-0.3,1-0.9,1.8-1.5,2.4
	c-0.7,0.6-1.5,0.8-2.6,0.8c-1.4,0-2.5-0.5-3.2-1.5C487.9,35.1,487.4,33.2,487.4,30.5z M489.2,30.5c0,2.4,0.3,3.9,0.8,4.7
	c0.6,0.8,1.2,1.2,2,1.2s1.5-0.4,2-1.2c0.6-0.8,0.8-2.3,0.8-4.7s-0.3-3.9-0.8-4.7c-0.6-0.8-1.2-1.2-2-1.2s-1.5,0.3-1.9,1
	C489.5,26.5,489.2,28.1,489.2,30.5z M498.2,33.3v-1.8h5.4v1.8H498.2z M514.6,35.9v1.7h-9.5c0-0.4,0.1-0.8,0.2-1.2
	c0.2-0.6,0.6-1.3,1.2-1.9c0.5-0.6,1.3-1.3,2.3-2.2c1.6-1.3,2.6-2.3,3.2-3c0.6-0.8,0.8-1.5,0.8-2.1c0-0.7-0.2-1.3-0.8-1.8
	c-0.5-0.5-1.2-0.7-2-0.7s-1.5,0.3-2,0.8s-0.8,1.2-0.8,2.1l-1.8-0.2c0.1-1.3,0.6-2.4,1.4-3.1s1.9-1.1,3.3-1.1s2.4,0.4,3.2,1.1
	c0.8,0.8,1.2,1.7,1.2,2.8c0,0.6-0.1,1.1-0.4,1.7c-0.2,0.6-0.6,1.1-1.2,1.8c-0.5,0.6-1.4,1.4-2.7,2.5c-1.1,0.9-1.7,1.5-2,1.8
	s-0.5,0.6-0.7,1C507.5,35.9,514.6,35.9,514.6,35.9z M516.4,30.5c0-1.7,0.2-3,0.5-4.1c0.4-1,0.9-1.8,1.6-2.4c0.7-0.6,1.6-0.8,2.6-0.8
	c0.8,0,1.4,0.2,2,0.5s1.1,0.7,1.4,1.3c0.4,0.6,0.7,1.3,0.9,2.1c0.2,0.8,0.3,2,0.3,3.4c0,1.7-0.2,3-0.5,4.1c-0.3,1-0.9,1.8-1.5,2.4
	c-0.7,0.6-1.5,0.8-2.6,0.8c-1.4,0-2.5-0.5-3.2-1.5C516.9,35.1,516.4,33.2,516.4,30.5z M518.2,30.5c0,2.4,0.3,3.9,0.8,4.7
	c0.6,0.8,1.2,1.2,2,1.2s1.5-0.4,2-1.2c0.6-0.8,0.8-2.3,0.8-4.7s-0.3-3.9-0.8-4.7c-0.6-0.8-1.2-1.2-2-1.2s-1.5,0.3-1.9,1
	C518.5,26.5,518.2,28.1,518.2,30.5z M534,37.5h-1.8V26.3c-0.4,0.4-1,0.8-1.7,1.2c-0.7,0.4-1.3,0.7-1.9,0.9v-1.7c1-0.5,1.8-1,2.6-1.7
	c0.7-0.7,1.3-1.3,1.6-1.9h1.1v14.4H534z M547.6,35.9v1.7h-9.5c0-0.4,0.1-0.8,0.2-1.2c0.2-0.6,0.6-1.3,1.2-1.9s1.3-1.3,2.3-2.2
	c1.6-1.3,2.6-2.3,3.2-3c0.6-0.8,0.8-1.5,0.8-2.1c0-0.7-0.2-1.3-0.8-1.8c-0.5-0.5-1.2-0.7-2-0.7s-1.5,0.3-2,0.8s-0.8,1.2-0.8,2.1
	l-1.8-0.2c0.1-1.3,0.6-2.4,1.4-3.1c0.8-0.7,1.9-1.1,3.3-1.1c1.4,0,2.4,0.4,3.2,1.1c0.8,0.8,1.2,1.7,1.2,2.8c0,0.6-0.1,1.1-0.4,1.7
	c-0.2,0.6-0.6,1.1-1.2,1.8c-0.5,0.6-1.4,1.4-2.7,2.5c-1.1,0.9-1.7,1.5-2,1.8s-0.5,0.6-0.7,1C540.5,35.9,547.6,35.9,547.6,35.9z
	 M551,41.8h-1.2c1.9-3.1,2.9-6.2,2.9-9.4c0-1.2-0.1-2.4-0.4-3.6c-0.2-1-0.5-1.9-0.9-2.8c-0.2-0.6-0.8-1.6-1.6-2.9h1.2
	c1.2,1.6,2.1,3.3,2.7,4.9c0.5,1.4,0.8,2.9,0.8,4.5c0,1.8-0.3,3.5-1,5.1C552.8,39.1,552,40.5,551,41.8z"/>
</svg>
